<?xml version="1.0" encoding="UTF-8" standalone="no"?>
<svg width="106px" height="46px" viewBox="0 0 106 46" version="1.1" xmlns="http://www.w3.org/2000/svg" xmlns:xlink="http://www.w3.org/1999/xlink" xmlns:sketch="http://www.bohemiancoding.com/sketch/ns">
    <!-- Generator: Sketch 3.3.3 (12072) - http://www.bohemiancoding.com/sketch -->
    <title>gaffa-logo</title>
    <desc>Created with Sketch.</desc>
    <defs></defs>
    <g id="mobile" stroke="none" stroke-width="1" fill="none" fill-rule="evenodd" sketch:type="MSPage">
        <g id="mobile-1.0-home" sketch:type="MSArtboardGroup" transform="translate(-268.000000, -44.000000)">
            <g id="nav" sketch:type="MSLayerGroup">
                <g id="gaffa-logo" transform="translate(256.000000, 0.000000)" sketch:type="MSShapeGroup">
                    <rect id="Rectangle-47" x="0" y="0" width="130" height="130"></rect>
                    <path d="M26.3091309,71.0506051 C25.3410293,71.0506051 24.53429,70.8452532 23.8888889,70.4345435 C23.2434878,70.0238337 22.7227743,69.4957861 22.3267327,68.850385 C21.9306911,68.2049839 21.6519993,67.4789186 21.4906491,66.6721672 C21.3292988,65.8654158 21.2486249,65.0513426 21.2486249,64.229923 C21.2486249,63.379167 21.3439668,62.5650937 21.5346535,61.7876788 C21.7253402,61.0102638 22.0333679,60.3208684 22.4587459,59.7194719 C22.8841239,59.1180755 23.4121714,58.6413659 24.0429043,58.2893289 C24.6736372,57.937292 25.4290385,57.7612761 26.3091309,57.7612761 C27.3359054,57.7612761 28.1866486,57.95196 28.8613861,58.3333333 C29.5361237,58.7147067 30.0788392,59.2280862 30.489549,59.8734873 C30.9002587,60.5188884 31.1936185,61.2596218 31.369637,62.0957096 C31.5456554,62.9317974 31.6336634,63.8192106 31.6336634,64.7579758 C31.6336634,65.5793954 31.5236535,66.3641327 31.3036304,67.1122112 C31.0836073,67.8602898 30.7535776,68.5276832 30.3135314,69.1144114 C29.8734851,69.7011397 29.3161017,70.1705153 28.6413641,70.5225523 C27.9666266,70.8745892 27.1892233,71.0506051 26.3091309,71.0506051 L26.3091309,71.0506051 L26.3091309,71.0506051 Z M37.5742574,74.9669967 L37.5742574,53.6688669 L31.6336634,53.6688669 L31.6336634,56.7051705 L31.5456546,56.7051705 C30.7829078,55.3850319 29.8368227,54.4462807 28.7073707,53.8888889 C27.5779188,53.331497 26.265134,53.0528053 24.7689769,53.0528053 C23.1848106,53.0528053 21.7840178,53.360833 20.5665567,53.9768977 C19.3490955,54.5929624 18.3296704,55.4217036 17.5082508,56.4631463 C16.6868312,57.504589 16.0634418,58.7073639 15.6380638,60.0715072 C15.2126858,61.4356504 15,62.8511111 15,64.3179318 C15,65.8727617 15.1833498,67.3468944 15.550055,68.740374 C15.9167602,70.1338537 16.4961457,71.3512966 17.2882288,72.3927393 C18.080312,73.434182 19.0924031,74.2555892 20.3245325,74.8569857 C21.5566618,75.4583822 23.0234605,75.7590759 24.7249725,75.7590759 C26.1037839,75.7590759 27.4165688,75.4730502 28.6633663,74.9009901 C29.9101639,74.32893 30.8709171,73.4415168 31.5456546,72.2387239 L31.6336634,72.2387239 L31.6336634,75.2310231 C31.6629998,76.8445259 31.2742981,78.1793127 30.4675468,79.2354235 C29.6607954,80.2915344 28.3773465,80.819582 26.6171617,80.819582 C25.502378,80.819582 24.5196229,80.5922282 23.6688669,80.1375138 C22.8181109,79.6827993 22.2460594,78.8687261 21.9526953,77.6952695 L15.7480748,77.6952695 C15.836084,78.9860717 16.1954497,80.0935047 16.8261826,81.0176018 C17.4569155,81.9416988 18.2489868,82.6971001 19.2024202,83.2838284 C20.1558537,83.8705567 21.2119487,84.3032623 22.3707371,84.5819582 C23.5295254,84.8606541 24.6662944,85 25.7810781,85 C28.3920189,85 30.474873,84.6479683 32.029703,83.9438944 C33.5845329,83.2398205 34.7726398,82.3817432 35.5940594,81.369637 C36.415479,80.3575307 36.9508605,79.2647657 37.20022,78.0913091 C37.4495795,76.9178526 37.5742574,75.8764255 37.5742574,74.9669967 L37.5742574,74.9669967 L37.5742574,74.9669967 Z M41.8737462,60.6655666 C41.9617554,59.1987459 42.3284551,57.981303 42.9738562,57.0132013 C43.6192573,56.0450997 44.4406646,55.2676964 45.4381026,54.6809681 C46.4355407,54.0942398 47.5576417,53.6762022 48.8044393,53.4268427 C50.0512369,53.1774832 51.3053497,53.0528053 52.5668155,53.0528053 C53.7109356,53.0528053 54.8697066,53.1334792 56.0431631,53.2948295 C57.2166197,53.4561798 58.2873827,53.7715415 59.2554844,54.2409241 C60.223586,54.7103067 61.0156573,55.3630321 61.631722,56.1991199 C62.2477867,57.0352077 62.5558144,58.1426407 62.5558144,59.5214521 L62.5558144,71.3586359 C62.5558144,72.3854103 62.6144864,73.3681655 62.731832,74.3069307 C62.8491777,75.2456959 63.0545295,75.9497593 63.3478936,76.4191419 L57.01126,76.4191419 C56.8939143,76.067105 56.7985724,75.7077393 56.7252314,75.3410341 C56.6518903,74.9743289 56.6005524,74.6002953 56.571216,74.2189219 C55.5737779,75.2456964 54.4003389,75.9644277 53.0508639,76.3751375 C51.7013889,76.7858473 50.3225981,76.9911991 48.9144503,76.9911991 C47.829003,76.9911991 46.8169119,76.8591872 45.8781466,76.5951595 C44.9393814,76.3311318 44.1179741,75.9204282 43.4139002,75.3630363 C42.7098263,74.8056444 42.1597768,74.1015811 41.7637352,73.2508251 C41.3676936,72.4000691 41.1696758,71.387978 41.1696758,70.2145215 C41.1696758,68.9237193 41.3970296,67.8602902 41.851744,67.0242024 C42.3064584,66.1881146 42.8931779,65.5207212 43.61192,65.0220022 C44.3306622,64.5232832 45.1520694,64.1492495 46.0761664,63.89989 C47.0002635,63.6505305 47.9316806,63.4525127 48.8704459,63.3058306 C49.8092111,63.1591485 50.7332943,63.0418046 51.6427231,62.9537954 C52.5521519,62.8657861 53.3588912,62.7337743 54.0629651,62.5577558 C54.7670391,62.3817373 55.3244226,62.1250475 55.7351323,61.7876788 C56.1458421,61.45031 56.336526,60.9589325 56.3071896,60.3135314 C56.3071896,59.6387938 56.1971796,59.1034123 55.9771565,58.7073707 C55.7571334,58.3113292 55.4637737,58.0033014 55.0970685,57.7832783 C54.7303634,57.5632552 54.3049918,57.4165754 53.8209409,57.3432343 C53.3368901,57.2698933 52.8161766,57.2332233 52.2587847,57.2332233 C51.0266553,57.2332233 50.0585682,57.4972471 49.3544943,58.0253025 C48.6504204,58.553358 48.2397167,59.4334372 48.1223711,60.6655666 L41.8737462,60.6655666 L41.8737462,60.6655666 Z M56.3071896,65.2860286 C56.0431618,65.5207199 55.7131321,65.7040697 55.3170905,65.8360836 C54.921049,65.9680975 54.4956773,66.0781074 54.0409629,66.1661166 C53.5862485,66.2541259 53.1095389,66.3274658 52.6108199,66.3861386 C52.1121009,66.4448114 51.6133893,66.5181514 51.1146703,66.6061606 C50.6452877,66.6941699 50.1832461,66.8115138 49.7285317,66.9581958 C49.2738173,67.1048779 48.8777816,67.3028957 48.5404129,67.5522552 C48.2030441,67.8016147 47.9316864,68.1169765 47.7263315,68.4983498 C47.5209766,68.8797232 47.4183007,69.3637668 47.4183007,69.950495 C47.4183007,70.5078869 47.5209766,70.9772625 47.7263315,71.3586359 C47.9316864,71.7400092 48.2103781,72.040703 48.5624151,72.2607261 C48.914452,72.4807492 49.3251557,72.634763 49.7945383,72.7227723 C50.2639209,72.8107815 50.7479645,72.8547855 51.2466835,72.8547855 C52.4788129,72.8547855 53.432232,72.6494337 54.1069695,72.2387239 C54.781707,71.8280141 55.2804186,71.3366365 55.6031191,70.7645765 C55.9258197,70.1925164 56.1238375,69.6131309 56.1971785,69.0264026 C56.2705196,68.4396744 56.3071896,67.9702988 56.3071896,67.6182618 L56.3071896,65.2860286 L56.3071896,65.2860286 Z M81.6407817,57.8492849 L74.5560733,57.8492849 L74.5560733,76.4191419 L68.3074484,76.4191419 L68.3074484,57.8492849 L64.5670744,57.8492849 L64.5670744,53.6688669 L68.3074484,53.6688669 L68.3074484,51.9086909 C68.3074484,49.8844783 68.9381718,48.2269958 70.1996376,46.9361936 C71.4611034,45.6453914 73.3679417,45 75.9202097,45 C76.4776015,45 77.034985,45.022002 77.5923769,45.0660066 C78.1497688,45.1100112 78.6924843,45.1466812 79.2205397,45.1760176 L79.2205397,49.840484 C78.457793,49.7524748 77.6950576,49.7084708 76.9323109,49.7084708 C76.0815549,49.7084708 75.4728334,49.9064887 75.1061283,50.3025303 C74.7394231,50.6985718 74.5560733,51.3659652 74.5560733,52.3047305 L74.5560733,53.6688669 L81.6407817,53.6688669 L81.6407817,51.9086909 C81.6407817,49.8844783 82.2715052,48.2269958 83.532971,46.9361936 C84.7944367,45.6453914 86.701275,45 89.253543,45 C89.8109349,45 90.3683184,45.022002 90.9257102,45.0660066 C91.4831021,45.1100112 92.0258176,45.1466812 92.553873,45.1760176 L92.553873,49.840484 C91.7911263,49.7524748 91.028391,49.7084708 90.2656442,49.7084708 C89.4148882,49.7084708 88.8061668,49.9064887 88.4394616,50.3025303 C88.0727564,50.6985718 87.8894066,51.3659652 87.8894066,52.3047305 L87.8894066,53.6688669 L92.2018378,53.6688669 L92.2018378,57.8492849 L87.8894066,57.8492849 L87.8894066,76.4191419 L81.6407817,76.4191419 L81.6407817,57.8492849 L81.6407817,57.8492849 Z M94.2130978,60.6655666 C94.301107,59.1987459 94.6678067,57.981303 95.3132078,57.0132013 C95.9586089,56.0450997 96.7800162,55.2676964 97.7774542,54.6809681 C98.7748923,54.0942398 99.8969933,53.6762022 101.143791,53.4268427 C102.390588,53.1774832 103.644701,53.0528053 104.906167,53.0528053 C106.050287,53.0528053 107.209058,53.1334792 108.382515,53.2948295 C109.555971,53.4561798 110.626734,53.7715415 111.594836,54.2409241 C112.562938,54.7103067 113.355009,55.3630321 113.971074,56.1991199 C114.587138,57.0352077 114.895166,58.1426407 114.895166,59.5214521 L114.895166,71.3586359 C114.895166,72.3854103 114.953838,73.3681655 115.071184,74.3069307 C115.188529,75.2456959 115.393881,75.9497593 115.687245,76.4191419 L109.350612,76.4191419 C109.233266,76.067105 109.137924,75.7077393 109.064583,75.3410341 C108.991242,74.9743289 108.939904,74.6002953 108.910568,74.2189219 C107.913129,75.2456964 106.739691,75.9644277 105.390216,76.3751375 C104.04074,76.7858473 102.66195,76.9911991 101.253802,76.9911991 C100.168355,76.9911991 99.1562635,76.8591872 98.2174982,76.5951595 C97.278733,76.3311318 96.4573257,75.9204282 95.7532518,75.3630363 C95.0491779,74.8056444 94.4991284,74.1015811 94.1030868,73.2508251 C93.7070452,72.4000691 93.5090274,71.387978 93.5090274,70.2145215 C93.5090274,68.9237193 93.7363812,67.8602902 94.1910956,67.0242024 C94.64581,66.1881146 95.2325295,65.5207212 95.9512716,65.0220022 C96.6700138,64.5232832 97.491421,64.1492495 98.415518,63.89989 C99.3396151,63.6505305 100.271032,63.4525127 101.209797,63.3058306 C102.148563,63.1591485 103.072646,63.0418046 103.982075,62.9537954 C104.891504,62.8657861 105.698243,62.7337743 106.402317,62.5577558 C107.106391,62.3817373 107.663774,62.1250475 108.074484,61.7876788 C108.485194,61.45031 108.675878,60.9589325 108.646541,60.3135314 C108.646541,59.6387938 108.536531,59.1034123 108.316508,58.7073707 C108.096485,58.3113292 107.803125,58.0033014 107.43642,57.7832783 C107.069715,57.5632552 106.644343,57.4165754 106.160293,57.3432343 C105.676242,57.2698933 105.155528,57.2332233 104.598136,57.2332233 C103.366007,57.2332233 102.39792,57.4972471 101.693846,58.0253025 C100.989772,58.553358 100.579068,59.4334372 100.461723,60.6655666 L94.2130978,60.6655666 L94.2130978,60.6655666 Z M108.646541,65.2860286 C108.382513,65.5207199 108.052484,65.7040697 107.656442,65.8360836 C107.260401,65.9680975 106.835029,66.0781074 106.380315,66.1661166 C105.9256,66.2541259 105.448891,66.3274658 104.950172,66.3861386 C104.451452,66.4448114 103.952741,66.5181514 103.454022,66.6061606 C102.984639,66.6941699 102.522598,66.8115138 102.067883,66.9581958 C101.613169,67.1048779 101.217133,67.3028957 100.879764,67.5522552 C100.542396,67.8016147 100.271038,68.1169765 100.065683,68.4983498 C99.8603282,68.8797232 99.7576523,69.3637668 99.7576523,69.950495 C99.7576523,70.5078869 99.8603282,70.9772625 100.065683,71.3586359 C100.271038,71.7400092 100.54973,72.040703 100.901767,72.2607261 C101.253804,72.4807492 101.664507,72.634763 102.13389,72.7227723 C102.603273,72.8107815 103.087316,72.8547855 103.586035,72.8547855 C104.818164,72.8547855 105.771584,72.6494337 106.446321,72.2387239 C107.121059,71.8280141 107.61977,71.3366365 107.942471,70.7645765 C108.265171,70.1925164 108.463189,69.6131309 108.53653,69.0264026 C108.609871,68.4396744 108.646541,67.9702988 108.646541,67.6182618 L108.646541,65.2860286 L108.646541,65.2860286 Z" id="gaffa" fill="#000000"></path>
                </g>
            </g>
        </g>
    </g>
</svg>