<?xml version="1.0" encoding="UTF-8" standalone="no"?>
<svg width="210px" height="340px" viewBox="0 0 210 340" version="1.1" xmlns="http://www.w3.org/2000/svg" xmlns:xlink="http://www.w3.org/1999/xlink" xmlns:sketch="http://www.bohemiancoding.com/sketch/ns">
    <!-- Generator: Sketch 3.4.4 (17249) - http://www.bohemiancoding.com/sketch -->
    <title>img-jimmy-lightning-alt@1x</title>
    <desc>Created with Sketch.</desc>
    <defs></defs>
    <g id="Page-1" stroke="none" stroke-width="1" fill="none" fill-rule="evenodd" sketch:type="MSPage">
        <g id="Desktop-HD-Copy" sketch:type="MSArtboardGroup" transform="translate(-177.000000, -118.000000)">
            <g id="img-jimmy-lightning-alt" sketch:type="MSLayerGroup" transform="translate(156.000000, 82.000000)">
                <path d="M103.461516,226.668974 L66.1827561,371.929648 L227,205.420268 L148.538484,185.263122 L185.817244,40 L25,206.511828 L126.513684,231.894266" id="masthead-lightning" stroke="#323742" stroke-width="8" stroke-linecap="round" stroke-linejoin="round" fill="#1ACCAF" sketch:type="MSShapeGroup"></path>
                <path d="M84.0053876,177.297256 C84.2230471,176.785089 84.2215348,175.958167 84.0053876,175.458088 L83.2936023,173.811302 C83.0759428,173.307725 83.3171624,173.083424 83.812295,173.301467 L85.3928985,173.997522 C85.897024,174.219526 86.7179527,174.227426 87.2311904,174.013208 L88.9740031,173.285782 C89.4851381,173.072442 89.7215348,173.311223 89.5053876,173.811302 L88.7936023,175.458088 C88.5759428,175.961665 88.571564,176.774785 88.7936023,177.297256 L89.5053876,178.972134 C89.7230471,179.484301 89.4872408,179.727426 88.9740031,179.513208 L87.2311904,178.785782 C86.7200553,178.572442 85.8880311,178.583424 85.3928985,178.801467 L83.812295,179.497522 C83.3081694,179.719526 83.071564,179.494605 83.2936023,178.972134 L84.0053876,177.297256 Z" id="Rectangle-66" opacity="0.580631996" fill="#FFFFFF" sketch:type="MSShapeGroup" transform="translate(86.399495, 176.399495) rotate(-315.000000) translate(-86.399495, -176.399495) "></path>
                <path d="M84.0053876,205.297256 C84.2230471,204.785089 84.2215348,203.958167 84.0053876,203.458088 L83.2936023,201.811302 C83.0759428,201.307725 83.3171624,201.083424 83.812295,201.301467 L85.3928985,201.997522 C85.897024,202.219526 86.7179527,202.227426 87.2311904,202.013208 L88.9740031,201.285782 C89.4851381,201.072442 89.7215348,201.311223 89.5053876,201.811302 L88.7936023,203.458088 C88.5759428,203.961665 88.571564,204.774785 88.7936023,205.297256 L89.5053876,206.972134 C89.7230471,207.484301 89.4872408,207.727426 88.9740031,207.513208 L87.2311904,206.785782 C86.7200553,206.572442 85.8880311,206.583424 85.3928985,206.801467 L83.812295,207.497522 C83.3081694,207.719526 83.071564,207.494605 83.2936023,206.972134 L84.0053876,205.297256 Z" id="Rectangle-66" opacity="0.580631996" fill="#FFFFFF" sketch:type="MSShapeGroup" transform="translate(86.399495, 204.399495) rotate(-315.000000) translate(-86.399495, -204.399495) "></path>
                <path d="M134.005388,115.297256 C134.223047,114.785089 134.221535,113.958167 134.005388,113.458088 L133.293602,111.811302 C133.075943,111.307725 133.317162,111.083424 133.812295,111.301467 L135.392898,111.997522 C135.897024,112.219526 136.717953,112.227426 137.23119,112.013208 L138.974003,111.285782 C139.485138,111.072442 139.721535,111.311223 139.505388,111.811302 L138.793602,113.458088 C138.575943,113.961665 138.571564,114.774785 138.793602,115.297256 L139.505388,116.972134 C139.723047,117.484301 139.487241,117.727426 138.974003,117.513208 L137.23119,116.785782 C136.720055,116.572442 135.888031,116.583424 135.392898,116.801467 L133.812295,117.497522 C133.308169,117.719526 133.071564,117.494605 133.293602,116.972134 L134.005388,115.297256 Z" id="Rectangle-66" opacity="0.580631996" fill="#FFFFFF" sketch:type="MSShapeGroup" transform="translate(136.399495, 114.399495) rotate(-315.000000) translate(-136.399495, -114.399495) "></path>
                <path d="M90.0053876,325.297256 C90.2230471,324.785089 90.2215348,323.958167 90.0053876,323.458088 L89.2936023,321.811302 C89.0759428,321.307725 89.3171624,321.083424 89.812295,321.301467 L91.3928985,321.997522 C91.897024,322.219526 92.7179527,322.227426 93.2311904,322.013208 L94.9740031,321.285782 C95.4851381,321.072442 95.7215348,321.311223 95.5053876,321.811302 L94.7936023,323.458088 C94.5759428,323.961665 94.571564,324.774785 94.7936023,325.297256 L95.5053876,326.972134 C95.7230471,327.484301 95.4872408,327.727426 94.9740031,327.513208 L93.2311904,326.785782 C92.7200553,326.572442 91.8880311,326.583424 91.3928985,326.801467 L89.812295,327.497522 C89.3081694,327.719526 89.071564,327.494605 89.2936023,326.972134 L90.0053876,325.297256 Z" id="Rectangle-66" opacity="0.580631996" fill="#FFFFFF" sketch:type="MSShapeGroup" transform="translate(92.399495, 324.399495) rotate(-315.000000) translate(-92.399495, -324.399495) "></path>
                <path d="M164.005388,245.297256 C164.223047,244.785089 164.221535,243.958167 164.005388,243.458088 L163.293602,241.811302 C163.075943,241.307725 163.317162,241.083424 163.812295,241.301467 L165.392898,241.997522 C165.897024,242.219526 166.717953,242.227426 167.23119,242.013208 L168.974003,241.285782 C169.485138,241.072442 169.721535,241.311223 169.505388,241.811302 L168.793602,243.458088 C168.575943,243.961665 168.571564,244.774785 168.793602,245.297256 L169.505388,246.972134 C169.723047,247.484301 169.487241,247.727426 168.974003,247.513208 L167.23119,246.785782 C166.720055,246.572442 165.888031,246.583424 165.392898,246.801467 L163.812295,247.497522 C163.308169,247.719526 163.071564,247.494605 163.293602,246.972134 L164.005388,245.297256 Z" id="Rectangle-66" opacity="0.580631996" fill="#FFFFFF" sketch:type="MSShapeGroup" transform="translate(166.399495, 244.399495) rotate(-315.000000) translate(-166.399495, -244.399495) "></path>
                <path d="M164.005388,215.297256 C164.223047,214.785089 164.221535,213.958167 164.005388,213.458088 L163.293602,211.811302 C163.075943,211.307725 163.317162,211.083424 163.812295,211.301467 L165.392898,211.997522 C165.897024,212.219526 166.717953,212.227426 167.23119,212.013208 L168.974003,211.285782 C169.485138,211.072442 169.721535,211.311223 169.505388,211.811302 L168.793602,213.458088 C168.575943,213.961665 168.571564,214.774785 168.793602,215.297256 L169.505388,216.972134 C169.723047,217.484301 169.487241,217.727426 168.974003,217.513208 L167.23119,216.785782 C166.720055,216.572442 165.888031,216.583424 165.392898,216.801467 L163.812295,217.497522 C163.308169,217.719526 163.071564,217.494605 163.293602,216.972134 L164.005388,215.297256 Z" id="Rectangle-66" opacity="0.580631996" fill="#FFFFFF" sketch:type="MSShapeGroup" transform="translate(166.399495, 214.399495) rotate(-315.000000) translate(-166.399495, -214.399495) "></path>
                <path d="M146.005388,230.297256 C146.223047,229.785089 146.221535,228.958167 146.005388,228.458088 L145.293602,226.811302 C145.075943,226.307725 145.317162,226.083424 145.812295,226.301467 L147.392898,226.997522 C147.897024,227.219526 148.717953,227.227426 149.23119,227.013208 L150.974003,226.285782 C151.485138,226.072442 151.721535,226.311223 151.505388,226.811302 L150.793602,228.458088 C150.575943,228.961665 150.571564,229.774785 150.793602,230.297256 L151.505388,231.972134 C151.723047,232.484301 151.487241,232.727426 150.974003,232.513208 L149.23119,231.785782 C148.720055,231.572442 147.888031,231.583424 147.392898,231.801467 L145.812295,232.497522 C145.308169,232.719526 145.071564,232.494605 145.293602,231.972134 L146.005388,230.297256 Z" id="Rectangle-66" opacity="0.580631996" fill="#FFFFFF" sketch:type="MSShapeGroup" transform="translate(148.399495, 229.399495) rotate(-315.000000) translate(-148.399495, -229.399495) "></path>
                <path d="M61.8229309,192.710522 C62.4730082,191.180847 62.4636601,188.699925 61.8100117,187.187644 L61.1899883,185.753157 C60.5327759,184.23263 61.2336755,183.543277 62.7512302,184.211567 L64.0611769,184.788433 C65.5806394,185.457563 68.0479984,185.484282 69.581037,184.844413 L71.2313701,184.155587 C72.7604422,183.517374 73.4636601,184.240876 72.8100117,185.753157 L72.1899883,187.187644 C71.5327759,188.70817 71.5225601,191.170419 72.1770691,192.710522 L72.8229309,194.230278 C73.4730082,195.759953 72.7644087,196.484282 71.2313701,195.844413 L69.581037,195.155587 C68.051965,194.517374 65.5787316,194.543277 64.0611769,195.211567 L62.7512302,195.788433 C61.2317677,196.457563 60.5225601,195.770381 61.1770691,194.230278 L61.8229309,192.710522 Z" id="Rectangle-66" opacity="0.580631996" fill="#FFFFFF" sketch:type="MSShapeGroup" transform="translate(67.000000, 190.000000) rotate(-315.000000) translate(-67.000000, -190.000000) "></path>
                <path d="M146.722426,98.6100173 C147.372503,97.0803423 147.363155,94.5994196 146.709507,93.0871385 L146.089483,91.6526521 C145.432271,90.1321254 146.13317,89.4427723 147.650725,90.1110624 L148.960672,90.6879275 C150.480134,91.3570577 152.947493,91.3837766 154.480532,90.7439078 L156.130865,90.055082 C157.659937,89.4168689 158.363155,90.140371 157.709507,91.6526521 L157.089483,93.0871385 C156.432271,94.6076652 156.422055,97.0699144 157.076564,98.6100173 L157.722426,100.129773 C158.372503,101.659448 157.663904,102.383777 156.130865,101.743908 L154.480532,101.055082 C152.95146,100.416869 150.478227,100.442772 148.960672,101.111062 L147.650725,101.687927 C146.131263,102.357058 145.422055,101.669876 146.076564,100.129773 L146.722426,98.6100173 Z" id="Rectangle-66" opacity="0.580631996" fill="#FFFFFF" sketch:type="MSShapeGroup" transform="translate(151.899495, 95.899495) rotate(-315.000000) translate(-151.899495, -95.899495) "></path>
                <path d="M186.722426,218.610017 C187.372503,217.080342 187.363155,214.59942 186.709507,213.087139 L186.089483,211.652652 C185.432271,210.132125 186.13317,209.442772 187.650725,210.111062 L188.960672,210.687927 C190.480134,211.357058 192.947493,211.383777 194.480532,210.743908 L196.130865,210.055082 C197.659937,209.416869 198.363155,210.140371 197.709507,211.652652 L197.089483,213.087139 C196.432271,214.607665 196.422055,217.069914 197.076564,218.610017 L197.722426,220.129773 C198.372503,221.659448 197.663904,222.383777 196.130865,221.743908 L194.480532,221.055082 C192.95146,220.416869 190.478227,220.442772 188.960672,221.111062 L187.650725,221.687927 C186.131263,222.357058 185.422055,221.669876 186.076564,220.129773 L186.722426,218.610017 Z" id="Rectangle-66" opacity="0.580631996" fill="#FFFFFF" sketch:type="MSShapeGroup" transform="translate(191.899495, 215.899495) rotate(-315.000000) translate(-191.899495, -215.899495) "></path>
                <path d="M106.722426,292.610017 C107.372503,291.080342 107.363155,288.59942 106.709507,287.087139 L106.089483,285.652652 C105.432271,284.132125 106.13317,283.442772 107.650725,284.111062 L108.960672,284.687927 C110.480134,285.357058 112.947493,285.383777 114.480532,284.743908 L116.130865,284.055082 C117.659937,283.416869 118.363155,284.140371 117.709507,285.652652 L117.089483,287.087139 C116.432271,288.607665 116.422055,291.069914 117.076564,292.610017 L117.722426,294.129773 C118.372503,295.659448 117.663904,296.383777 116.130865,295.743908 L114.480532,295.055082 C112.95146,294.416869 110.478227,294.442772 108.960672,295.111062 L107.650725,295.687927 C106.131263,296.357058 105.422055,295.669876 106.076564,294.129773 L106.722426,292.610017 Z" id="Rectangle-66" opacity="0.580631996" fill="#FFFFFF" sketch:type="MSShapeGroup" transform="translate(111.899495, 289.899495) rotate(-315.000000) translate(-111.899495, -289.899495) "></path>
                <path d="M132.722426,164.610017 C133.372503,163.080342 133.363155,160.59942 132.709507,159.087139 L132.089483,157.652652 C131.432271,156.132125 132.13317,155.442772 133.650725,156.111062 L134.960672,156.687927 C136.480134,157.357058 138.947493,157.383777 140.480532,156.743908 L142.130865,156.055082 C143.659937,155.416869 144.363155,156.140371 143.709507,157.652652 L143.089483,159.087139 C142.432271,160.607665 142.422055,163.069914 143.076564,164.610017 L143.722426,166.129773 C144.372503,167.659448 143.663904,168.383777 142.130865,167.743908 L140.480532,167.055082 C138.95146,166.416869 136.478227,166.442772 134.960672,167.111062 L133.650725,167.687927 C132.131263,168.357058 131.422055,167.669876 132.076564,166.129773 L132.722426,164.610017 Z" id="Rectangle-66" opacity="0.580631996" fill="#FFFFFF" sketch:type="MSShapeGroup" transform="translate(137.899495, 161.899495) rotate(-315.000000) translate(-137.899495, -161.899495) "></path>
                <path d="M124.071792,198.341418 C124.587858,198.13317 125.171511,197.547378 125.37228,197.040931 L126.033426,195.373168 C126.2356,194.863177 126.564773,194.875141 126.760705,195.379432 L127.386175,196.989273 C127.585665,197.502723 128.160563,198.088794 128.674952,198.300233 L130.421674,199.01822 C130.933956,199.228792 130.93227,199.564794 130.425822,199.765564 L128.758059,200.42671 C128.248068,200.628884 127.670009,201.20075 127.457571,201.727197 L126.776562,203.414823 C126.568314,203.930889 126.229658,203.936063 126.01822,203.421674 L125.300233,201.674952 C125.08966,201.162671 124.493564,200.582107 123.989273,200.386175 L122.379432,199.760705 C121.865981,199.561214 121.857719,199.234866 122.384167,199.022428 L124.071792,198.341418 Z" id="Rectangle-66" opacity="0.580631996" fill="#FFFFFF" sketch:type="MSShapeGroup"></path>
                <path d="M122.071792,248.341418 C122.587858,248.13317 123.171511,247.547378 123.37228,247.040931 L124.033426,245.373168 C124.2356,244.863177 124.564773,244.875141 124.760705,245.379432 L125.386175,246.989273 C125.585665,247.502723 126.160563,248.088794 126.674952,248.300233 L128.421674,249.01822 C128.933956,249.228792 128.93227,249.564794 128.425822,249.765564 L126.758059,250.42671 C126.248068,250.628884 125.670009,251.20075 125.457571,251.727197 L124.776562,253.414823 C124.568314,253.930889 124.229658,253.936063 124.01822,253.421674 L123.300233,251.674952 C123.08966,251.162671 122.493564,250.582107 121.989273,250.386175 L120.379432,249.760705 C119.865981,249.561214 119.857719,249.234866 120.384167,249.022428 L122.071792,248.341418 Z" id="Rectangle-66" opacity="0.580631996" fill="#FFFFFF" sketch:type="MSShapeGroup"></path>
                <path d="M118.724783,146.988112 C118.93962,146.482584 118.936779,145.663262 118.71618,145.152885 L117.797095,143.02649 C117.577507,142.51845 117.816093,142.29006 118.322035,142.512864 L120.369759,143.414626 C120.879264,143.638998 121.701128,143.650248 122.224285,143.431889 L124.467509,142.4956 C124.98223,142.280762 125.222493,142.516113 125.001894,143.02649 L124.08281,145.152885 C123.863221,145.660925 123.862211,146.489271 124.074207,146.988112 L125.010497,149.191264 C125.225335,149.696791 124.990666,149.935962 124.467509,149.717604 L122.224285,148.781314 C121.709564,148.566476 120.875701,148.575775 120.369759,148.798578 L118.322035,149.70034 C117.81253,149.924712 117.576497,149.690105 117.788493,149.191264 L118.724783,146.988112 Z" id="Rectangle-66" opacity="0.580631996" fill="#FFFFFF" sketch:type="MSShapeGroup" transform="translate(121.399495, 146.106602) rotate(-315.000000) translate(-121.399495, -146.106602) "></path>
            </g>
        </g>
    </g>
</svg>