<?xml version="1.0" encoding="UTF-8" standalone="no"?>
<svg width="184px" height="199px" viewBox="0 0 184 199" version="1.1" xmlns="http://www.w3.org/2000/svg" xmlns:xlink="http://www.w3.org/1999/xlink" xmlns:sketch="http://www.bohemiancoding.com/sketch/ns">
    <!-- Generator: Sketch 3.4.4 (17249) - http://www.bohemiancoding.com/sketch -->
    <title>jimmynaut-desk</title>
    <desc>Created with Sketch.</desc>
    <defs>
        <path id="path-1" d="M4.54747351e-13,0.268108575 L110.084183,0.268108575 L110.084183,208.95568 L4.54747351e-13,208.95568 L4.54747351e-13,0.268108575 Z"></path>
        <radialGradient cx="-118.956924%" cy="146.352769%" fx="-118.956924%" fy="146.352769%" r="302.073785%" id="radialGradient-3">
            <stop stop-color="#E34234" offset="0%"></stop>
            <stop stop-color="#F38CB6" offset="21.05%"></stop>
            <stop stop-color="#FBCCC9" offset="37.44%"></stop>
            <stop stop-color="#F2F6DD" offset="59.3%"></stop>
            <stop stop-color="#BEE2CE" offset="81.76%"></stop>
            <stop stop-color="#7DCAB0" offset="100%"></stop>
        </radialGradient>
        <path d="M46.0891278,21.2556414 C40.4488982,21.2556414 35.8765123,25.8362917 35.8765123,31.4868714 C35.8765123,37.1372954 40.4488982,41.7179456 46.0891278,41.7179456 C51.7295128,41.7179456 56.3018987,37.1372954 56.3018987,31.4868714 C56.3018987,25.8362917 51.7295128,21.2556414 46.0891278,21.2556414 M46.9374322,33.8440184 C46.8954524,36.2676759 44.8818176,37.4304395 42.8400409,37.4304395 C42.4905195,37.4304395 40.8264062,37.2622165 39.8614909,36.337613 C40.1971745,36.0014785 40.868386,35.3290538 41.8611324,34.3063202 C42.0708763,34.5164432 42.3925665,34.656629 42.9379939,34.656629 C43.6511854,34.656629 44.182464,34.2083459 44.182464,33.437791 L44.182464,26.9235107 L46.9374322,26.9235107 L46.9374322,33.8440184 M48.6037223,33.2169204 L49.4644653,29.8586907 L47.6528004,29.3926507 L51.3659982,25.5431475 L50.5052552,28.9013772 L52.3169201,29.3674172 L48.6037223,33.2169204" id="path-4"></path>
    </defs>
    <g id="Page-1" stroke="none" stroke-width="1" fill="none" fill-rule="evenodd" sketch:type="MSPage">
        <g id="jimmynaut-desk" sketch:type="MSLayerGroup" transform="translate(5.000000, 1.000000)">
            <rect id="Rectangle-19" opacity="0.445604011" fill="#D8D8D8" sketch:type="MSShapeGroup" x="1" y="187" width="174" height="11" rx="99"></rect>
            <g id="JIMMY-Copy" transform="translate(30.793090, -0.000000)">
                <path d="M84.9721341,144.235807 C84.9721341,146.99794 82.9084542,149.237683 80.3622759,149.237683 L29.6538351,149.237683 C27.1080409,149.237683 25.0439769,146.99794 25.0439769,144.235807 L21.2024284,80.8749901 C21.2024284,78.1124731 23.2664924,75.8727294 25.8122866,75.8727294 L84.2038244,75.8727294 C86.7500028,75.8727294 88.8136827,78.1124731 88.8136827,80.8749901 L84.9721341,144.235807 Z" id="Fill-1" fill="#FEFEFE" sketch:type="MSShapeGroup"></path>
                <path d="M54.2397458,144.235807 C54.2397458,146.99794 52.1760659,149.237683 49.6298876,149.237683 L29.6538351,149.237683 C27.1080409,149.237683 25.0439769,146.99794 25.0439769,144.235807 L21.2024284,80.8749901 C21.2024284,78.1124731 23.2664924,75.8727294 25.8122866,75.8727294 L53.4714361,75.8727294 C56.0176145,75.8727294 58.0812943,78.1124731 58.0812943,80.8749901 L54.2397458,144.235807 Z" id="Fill-1" fill="#D8D8D8" sketch:type="MSShapeGroup"></path>
                <path d="M84.9721341,144.235807 C84.9721341,146.99794 82.9084542,149.237683 80.3622759,149.237683 L29.6538351,149.237683 C27.1080409,149.237683 25.0439769,146.99794 25.0439769,144.235807 L21.2024284,80.8749901 C21.2024284,78.1124731 23.2664924,75.8727294 25.8122866,75.8727294 L84.2038244,75.8727294 C86.7500028,75.8727294 88.8136827,78.1124731 88.8136827,80.8749901 L84.9721341,144.235807 L84.9721341,144.235807 Z" id="Stroke-3" stroke="#221F20" stroke-width="3.0663633" sketch:type="MSShapeGroup"></path>
                <g id="Fill-9-+-Fill-9-Copy-+-Stroke-11" transform="translate(90.140525, 120.841380) scale(1, -1) rotate(-345.000000) translate(-90.140525, -120.841380) translate(74.390176, 88.000000)" sketch:type="MSShapeGroup">
                    <path d="M2.15038363,1.49180528 C10.6674809,-10.3403101 45.9194511,56.2719952 24.567356,64.5752947 C7.9138589,71.0513843 13.0550033,45.2115562 12.5452298,38.1427852 C11.6708934,26.0252763 -5.62798386,12.2971954 2.15038363,1.49180528 C4.09728043,-1.21309527 0.583415977,3.66817087 2.15038363,1.49180528" id="Fill-9" fill="#FEFEFE"></path>
                    <path d="M21.1226756,64.5291117 C4.46917851,71.0052013 13.0550033,45.2115562 12.5452298,38.1427852 C11.6708934,26.0252763 -5.62798386,12.2971954 2.15038363,1.49180528 C17.7648916,26.872512 25.9265332,42.0881451 21.1226756,64.5291117 Z" id="Fill-9-Copy" fill="#D8D8D8"></path>
                    <path d="M2.15038363,1.49180528 C10.6674809,-10.3403101 45.9194511,56.2719952 24.567356,64.5752947 C7.9138589,71.0513843 13.0550033,45.2115562 12.5452298,38.1427852 C11.6708934,26.0252763 -5.62798386,12.2971954 2.15038363,1.49180528 C4.09728043,-1.21309527 0.583415977,3.66817087 2.15038363,1.49180528 L2.15038363,1.49180528 Z" id="Stroke-11" stroke="#221F20" stroke-width="3.0663633"></path>
                </g>
                <path d="M98.0979372,44.1216065 C96.0138971,19.1882772 78.8060646,1.03640481 55.0080555,1.03640481 C31.2100465,1.03640481 14.0018298,19.1882772 11.9181739,44.1216065 C9.67278873,70.9827823 19.6120273,87.206424 55.0080555,87.206424 L55.0080555,87.206424 C90.4040838,87.206424 100.343322,70.9827823 98.0979372,44.1216065" id="Fill-17" fill="#FEFEFE" sketch:type="MSShapeGroup"></path>
                <path d="M62.5760181,29.9595035 C38.5347479,20.4050628 32.8597488,16.2098584 27.4493627,11.2135306 C18.694136,18.9330425 13.0550173,30.5179733 11.9181739,44.1216065 C9.67278873,70.9827823 19.6120273,87.206424 55.0080555,87.206424" id="Fill-17" fill="#D8D8D8" sketch:type="MSShapeGroup"></path>
                <path d="M65.9253139,16.0949265 L57.3817099,13.9016601 L60.5014315,1.75303829 C59.7169873,1.65662675 58.9237075,1.58249358 58.1227446,1.52795 L43.9293753,16.2140005 L52.4729792,18.4072669 L48.413999,34.2137655 L65.9253139,16.0949265 Z" id="Fill-27" fill="#000000" sketch:type="MSShapeGroup"></path>
                <path d="M98.0979372,44.1216065 C96.0138971,19.1882772 78.8060646,1.03640481 55.0080555,1.03640481 C31.2100465,1.03640481 14.0018298,19.1882772 11.9181739,44.1216065 C9.67278873,70.9827823 19.6120273,87.206424 55.0080555,87.206424 L55.0080555,87.206424 C90.4040838,87.206424 100.343322,70.9827823 98.0979372,44.1216065 L98.0979372,44.1216065 Z" id="Stroke-19" stroke="#221F20" stroke-width="3.0663633" sketch:type="MSShapeGroup"></path>
                <mask id="mask-2" sketch:name="Clip 22" fill="white">
                    <use xlink:href="#path-1"></use>
                </mask>
                <g id="Clip-22"></g>
                <path d="M69.4137089,130.800494 L40.6020948,130.800494 L40.6020948,101.992266 L69.4137089,101.992266 L69.4137089,130.800494 Z" id="Fill-21" stroke="#D8D8D8" stroke-width="1.53318165" fill="#EDEDED" sketch:type="MSShapeGroup" mask="url(#mask-2)"></path>
                <path d="M46.7485341,107.550718 L63.2671928,107.550718" id="Stroke-24" stroke="#221F20" stroke-width="1.53318165" sketch:type="MSShapeGroup" mask="url(#mask-2)"></path>
                <path d="M46.7485341,114.464692 L63.2671928,114.464692" id="Stroke-25" stroke="#221F20" stroke-width="1.53318165" sketch:type="MSShapeGroup" mask="url(#mask-2)"></path>
                <path d="M59.3112045,123.502525 C59.3112045,125.879012 57.3842838,127.805706 55.0079018,127.805706 C52.6307516,127.805706 50.704215,125.879012 50.704215,123.502525 C50.704215,121.126038 52.6307516,119.199344 55.0079018,119.199344 C57.3842838,119.199344 59.3112045,121.126038 59.3112045,123.502525 L59.3112045,123.502525 Z" id="Stroke-26" fill="#1ACCAF" sketch:type="MSShapeGroup" mask="url(#mask-2)"></path>
                <path d="M92.7085135,49.0990921 C90.8856987,29.2025934 75.8295175,29.267508 55.0079403,29.267508 C34.1867472,29.267508 19.1309501,29.2025934 17.3077512,49.0990921 C15.3435674,70.533566 24.0396809,83.4795996 55.0079403,83.4795996 C85.976968,83.4795996 94.6726972,70.533566 92.7085135,49.0990921" id="Fill-29" fill="url(#radialGradient-3)" sketch:type="MSShapeGroup" mask="url(#mask-2)"></path>
                <path d="M55.0079403,29.267508 C69.1519311,31.2471282 85.5262085,34.8929782 88.2878409,53.646939 C91.0239761,72.2277519 70.1968988,81.3892599 55.0079403,83.4795996 C85.976968,83.4795996 94.6726972,70.533566 92.7085135,49.0990921 C90.8856987,29.2025934 73.9897167,29.2675081 55.0079403,29.267508 Z" id="Fill-29" fill="#FFFFFF" sketch:type="MSShapeGroup" mask="url(#mask-2)"></path>
                <path d="M92.7085135,49.0990921 C90.8856987,29.2025934 75.8295175,29.267508 55.0079403,29.267508 C34.1867472,29.267508 19.1309501,29.2025934 17.3077512,49.0990921 C15.3435674,70.533566 24.0396809,83.4795996 55.0079403,83.4795996 C85.976968,83.4795996 94.6726972,70.533566 92.7085135,49.0990921 L92.7085135,49.0990921 Z" id="Stroke-30" stroke="#221F20" stroke-width="1.53318165" sketch:type="MSShapeGroup" mask="url(#mask-2)"></path>
            </g>
            <g id="Fill-5-+-Oval-4-+-Stroke-7" transform="translate(53.747091, 120.033435) scale(-1, 1) rotate(-198.000000) translate(-53.747091, -120.033435) translate(37.997091, 87.000000)" sketch:type="MSShapeGroup">
                <path d="M29.1816,1.49180528 C20.6646915,-10.3403101 -14.5861134,56.2719952 6.76512439,64.5752947 C23.4182524,71.0513843 18.2776061,45.2115562 18.7873683,38.1427852 C19.6613012,26.0252763 36.9597951,12.2971954 29.1816,1.49180528 C27.2347463,-1.21309527 30.7485329,3.66855498 29.1816,1.49180528" id="Fill-5" fill="#D8D8D8"></path>
                <path d="M13.0296128,65.7740108 C17.5910134,65.7740108 20.3597561,61.0395219 20.3597561,55.3117977 C20.3597561,49.5840735 19.0863011,43.8091211 14.5249005,43.8091211 C9.96349993,43.8091211 7.13357904,49.5840738 7.13357904,55.311798 C7.13357904,61.0395221 8.46821225,65.7740108 13.0296128,65.7740108 Z" id="Oval-4" fill="#FFFFFF"></path>
                <path d="M29.1816,1.49180528 C20.6646915,-10.3403101 -14.5861134,56.2719952 6.76512439,64.5752947 C23.4182524,71.0513843 18.2776061,45.2115562 18.7873683,38.1427852 C19.6613012,26.0252763 36.9597951,12.2971954 29.1816,1.49180528 C27.2347463,-1.21309527 30.7485329,3.66855498 29.1816,1.49180528 L29.1816,1.49180528 Z" id="Stroke-7" stroke="#221F20" stroke-width="3.0663633"></path>
            </g>
            <g id="Rectangle-9-+-Clip-2-Copy" transform="translate(41.000000, 71.000000)">
                <path d="M82.5545553,49.8541408 L82.5545553,2.70280993 C82.5545553,1.20941169 81.3442892,1.74622983e-13 79.8513504,1.74622983e-13 L12.3474287,1.74622983e-13 C10.8488877,1.74622983e-13 9.64422375,1.21008922 9.64422375,2.70280993 L9.64422375,49.8541408 L0,49.8541408 L0,58.7641327 C0,61.0973777 1.90019072,62.9939918 4.24419476,62.9939918 L87.5688153,62.9939918 C89.9164397,62.9939918 91.8130101,61.1002194 91.8130101,58.7641327 L91.8130101,49.8541408 L82.5545553,49.8541408 Z" id="Rectangle-9" stroke="#221F20" stroke-width="3.08187781" fill="#9B9B9B" sketch:type="MSShapeGroup"></path>
                <mask id="mask-5" sketch:name="Clip 2" fill="white">
                    <use xlink:href="#path-4"></use>
                </mask>
                <use id="Clip-2" fill="#FFFFFF" sketch:type="MSShapeGroup" xlink:href="#path-4"></use>
            </g>
            <g id="Group-+-Group" transform="translate(61.000000, 145.000000)" sketch:type="MSShapeGroup">
                <g id="Group" transform="translate(26.000000, 0.000000)">
                    <rect id="Rectangle-8-Copy" fill="#FFFFFF" x="0" y="0" width="26.1225301" height="43.6443855" rx="38.4"></rect>
                    <rect id="Rectangle-8" fill="#D8D8D8" x="0" y="5.37753589" width="13.2480795" height="38.2668496" rx="38.4"></rect>
                    <rect id="Rectangle-8" stroke="#221F20" stroke-width="3.072" x="0" y="0" width="26.1225301" height="43.6443855" rx="38.4"></rect>
                    <path d="M24.9648026,44.3538008 C24.9648026,46.5831735 23.4662145,48.3904097 21.616893,48.3904097 L4.87926605,48.3904097 C3.03032873,48.3904097 1.53135649,46.5831735 1.53135649,44.3538008 C1.53135649,42.1240439 3.03032873,40.3164237 4.87926605,40.3164237 L21.616893,40.3164237 C23.4662145,40.3164237 24.9648026,42.1240439 24.9648026,44.3538008" id="Fill-35" fill="#FEFEFE"></path>
                    <path d="M24.9648026,44.3538008 C24.9648026,46.5831735 23.4662145,48.3904097 21.616893,48.3904097 L4.87926605,48.3904097 C3.03032873,48.3904097 1.53135649,46.5831735 1.53135649,44.3538008 C1.53135649,42.1240439 3.03032873,40.3164237 4.87926605,40.3164237 L21.616893,40.3164237 C23.4662145,40.3164237 24.9648026,42.1240439 24.9648026,44.3538008 L24.9648026,44.3538008 Z" id="Stroke-36" stroke="#221F20" stroke-width="3.0663633"></path>
                    <path d="M13.2480795,32.6418349 C6.77737518,32.6418349 1.53135649,37.6613805 1.53135649,43.8539972 L24.9648026,43.8539972 C24.9648026,37.6613805 19.7195522,32.6418349 13.2480795,32.6418349" id="Fill-37" fill="#FEFEFE"></path>
                    <path d="M6.64350507,34.5915756 C3.55703951,36.6107871 1.53135649,40.005909 1.53135649,43.8539972 C1.53135649,43.8539972 9.02590162,43.8539975 7.48700418,43.8539972 C5.94810675,43.8539969 7.63038229,35.7994671 8.7885778,33.4443515" id="Fill-37-Copy" fill="#D8D8D8"></path>
                    <path d="M13.2480795,32.2577252 C6.77737518,32.2577252 1.53135649,37.2772708 1.53135649,43.4698875 L24.9648026,43.4698875 C24.9648026,37.2772708 19.7195522,32.2577252 13.2480795,32.2577252 L13.2480795,32.2577252 Z" id="Stroke-38" stroke="#221F20" stroke-width="1.91647706"></path>
                </g>
                <g id="Group">
                    <rect id="Rectangle-8-Copy" fill="#FFFFFF" x="0" y="0" width="26.1225301" height="43.6443855" rx="38.4"></rect>
                    <rect id="Rectangle-8" fill="#D8D8D8" x="0" y="5.37753589" width="13.2480795" height="38.2668496" rx="38.4"></rect>
                    <rect id="Rectangle-8" stroke="#221F20" stroke-width="3.072" x="0" y="0" width="26.1225301" height="43.6443855" rx="38.4"></rect>
                    <path d="M24.9648026,44.3538008 C24.9648026,46.5831735 23.4662145,48.3904097 21.616893,48.3904097 L4.87926605,48.3904097 C3.03032873,48.3904097 1.53135649,46.5831735 1.53135649,44.3538008 C1.53135649,42.1240439 3.03032873,40.3164237 4.87926605,40.3164237 L21.616893,40.3164237 C23.4662145,40.3164237 24.9648026,42.1240439 24.9648026,44.3538008" id="Fill-35" fill="#FEFEFE"></path>
                    <path d="M24.9648026,44.3538008 C24.9648026,46.5831735 23.4662145,48.3904097 21.616893,48.3904097 L4.87926605,48.3904097 C3.03032873,48.3904097 1.53135649,46.5831735 1.53135649,44.3538008 C1.53135649,42.1240439 3.03032873,40.3164237 4.87926605,40.3164237 L21.616893,40.3164237 C23.4662145,40.3164237 24.9648026,42.1240439 24.9648026,44.3538008 L24.9648026,44.3538008 Z" id="Stroke-36" stroke="#221F20" stroke-width="3.0663633"></path>
                    <path d="M13.2480795,32.6418349 C6.77737518,32.6418349 1.53135649,37.6613805 1.53135649,43.8539972 L24.9648026,43.8539972 C24.9648026,37.6613805 19.7195522,32.6418349 13.2480795,32.6418349" id="Fill-37" fill="#FEFEFE"></path>
                    <path d="M6.64350507,34.5915756 C3.55703951,36.6107871 1.53135649,40.005909 1.53135649,43.8539972 C1.53135649,43.8539972 9.02590162,43.8539975 7.48700418,43.8539972 C5.94810675,43.8539969 7.63038229,35.7994671 8.7885778,33.4443515" id="Fill-37-Copy" fill="#D8D8D8"></path>
                    <path d="M13.2480795,32.2577252 C6.77737518,32.2577252 1.53135649,37.2772708 1.53135649,43.4698875 L24.9648026,43.4698875 C24.9648026,37.2772708 19.7195522,32.2577252 13.2480795,32.2577252 L13.2480795,32.2577252 Z" id="Stroke-38" stroke="#221F20" stroke-width="1.91647706"></path>
                </g>
            </g>
            <g id="Rectangle-9" transform="translate(0.000000, 136.000000)" stroke="#000000" stroke-width="4.49440514" fill="#FFFFFF" sketch:type="MSShapeGroup">
                <path d="M17.903537,16.1445087 L17.903537,57 L5.59485531,57 L5.59485531,16.1445087 L0,16.1445087 L0,0 L174,0 L174,16.1445087 L168.405145,16.1445087 L168.405145,57 L156.096463,57 L156.096463,16.1445087 L17.903537,16.1445087 L17.903537,16.1445087 Z" id="Rectangle-6"></path>
            </g>
        </g>
    </g>
</svg>