<?xml version="1.0" encoding="UTF-8" standalone="no"?>
<svg width="165px" height="209px" viewBox="0 0 165 209" version="1.1" xmlns="http://www.w3.org/2000/svg" xmlns:xlink="http://www.w3.org/1999/xlink" xmlns:sketch="http://www.bohemiancoding.com/sketch/ns">
    <!-- Generator: Sketch 3.5.1 (25234) - http://www.bohemiancoding.com/sketch -->
    <title>jimmy-man-00-static</title>
    <desc>Created with Sketch.</desc>
    <defs>
        <path id="path-1" d="M-2.74269496e-12,0.268108575 L110.084183,0.268108575 L110.084183,208.95568 L-2.74269496e-12,208.95568 L-2.74269496e-12,0.268108575 Z"></path>
        <radialGradient cx="-118.956924%" cy="146.352769%" fx="-118.956924%" fy="146.352769%" r="302.073785%" id="radialGradient-3">
            <stop stop-color="#E34234" offset="0%"></stop>
            <stop stop-color="#F38CB6" offset="21.05%"></stop>
            <stop stop-color="#FBCCC9" offset="37.44%"></stop>
            <stop stop-color="#F2F6DD" offset="59.3%"></stop>
            <stop stop-color="#BEE2CE" offset="81.76%"></stop>
            <stop stop-color="#7DCAB0" offset="100%"></stop>
        </radialGradient>
        <path d="M46.0891278,21.2556414 C40.4488982,21.2556414 35.8765123,25.8362917 35.8765123,31.4868714 C35.8765123,37.1372954 40.4488982,41.7179456 46.0891278,41.7179456 C51.7295128,41.7179456 56.3018987,37.1372954 56.3018987,31.4868714 C56.3018987,25.8362917 51.7295128,21.2556414 46.0891278,21.2556414 M46.9374322,33.8440184 C46.8954524,36.2676759 44.8818176,37.4304395 42.8400409,37.4304395 C42.4905195,37.4304395 40.8264062,37.2622165 39.8614909,36.337613 C40.1971745,36.0014785 40.868386,35.3290538 41.8611324,34.3063202 C42.0708763,34.5164432 42.3925665,34.656629 42.9379939,34.656629 C43.6511854,34.656629 44.182464,34.2083459 44.182464,33.437791 L44.182464,26.9235107 L46.9374322,26.9235107 L46.9374322,33.8440184 M48.6037223,33.2169204 L49.4644653,29.8586907 L47.6528004,29.3926507 L51.3659982,25.5431475 L50.5052552,28.9013772 L52.3169201,29.3674172 L48.6037223,33.2169204" id="path-4"></path>
    </defs>
    <g id="Page-1" stroke="none" stroke-width="1" fill="none" fill-rule="evenodd" sketch:type="MSPage">
        <g id="Desktop-HD-Copy" sketch:type="MSArtboardGroup" transform="translate(-1246.000000, -202.000000)">
            <g id="jimmy-man-00-static" sketch:type="MSLayerGroup" transform="translate(1332.306935, 311.203178) rotate(-353.000000) translate(-1332.306935, -311.203178) translate(1250.306935, 205.203178)">
                <g id="JIMMY-Copy" transform="translate(1.793090, -0.000000)">
                    <path d="M84.9721341,144.235807 C84.9721341,146.99794 82.9084542,149.237683 80.3622759,149.237683 L29.6538351,149.237683 C27.1080409,149.237683 25.0439769,146.99794 25.0439769,144.235807 L21.2024284,80.8749901 C21.2024284,78.1124731 23.2664924,75.8727294 25.8122866,75.8727294 L84.2038244,75.8727294 C86.7500028,75.8727294 88.8136827,78.1124731 88.8136827,80.8749901 L84.9721341,144.235807 Z" id="Fill-1" fill="#FEFEFE" sketch:type="MSShapeGroup"></path>
                    <path d="M54.2397458,144.235807 C54.2397458,146.99794 52.1760659,149.237683 49.6298876,149.237683 L29.6538351,149.237683 C27.1080409,149.237683 25.0439769,146.99794 25.0439769,144.235807 L21.2024284,80.8749901 C21.2024284,78.1124731 23.2664924,75.8727294 25.8122866,75.8727294 L53.4714361,75.8727294 C56.0176145,75.8727294 58.0812943,78.1124731 58.0812943,80.8749901 L54.2397458,144.235807 Z" id="Fill-1" fill="#D8D8D8" sketch:type="MSShapeGroup"></path>
                    <path d="M84.9721341,144.235807 C84.9721341,146.99794 82.9084542,149.237683 80.3622759,149.237683 L29.6538351,149.237683 C27.1080409,149.237683 25.0439769,146.99794 25.0439769,144.235807 L21.2024284,80.8749901 C21.2024284,78.1124731 23.2664924,75.8727294 25.8122866,75.8727294 L84.2038244,75.8727294 C86.7500028,75.8727294 88.8136827,78.1124731 88.8136827,80.8749901 L84.9721341,144.235807 L84.9721341,144.235807 Z" id="Stroke-3" stroke="#323742" stroke-width="3.0663633" sketch:type="MSShapeGroup"></path>
                    <g id="Fill-9-+-Fill-9-Copy-+-Stroke-11" transform="translate(106.579478, 105.954828) rotate(-42.000000) translate(-106.579478, -105.954828) translate(90.579478, 72.954828)" sketch:type="MSShapeGroup">
                        <path d="M2.15038363,1.49180528 C10.6674809,-10.3403101 45.9194511,56.2719952 24.567356,64.5752947 C7.9138589,71.0513843 13.0550033,45.2115562 12.5452298,38.1427852 C11.6708934,26.0252763 -5.62798386,12.2971954 2.15038363,1.49180528 C4.09728043,-1.21309527 0.583415977,3.66817087 2.15038363,1.49180528" id="Fill-9" fill="#FEFEFE"></path>
                        <path d="M21.1226756,64.5291117 C4.46917851,71.0052013 13.0550033,45.2115562 12.5452298,38.1427852 C11.6708934,26.0252763 -5.62798386,12.2971954 2.15038363,1.49180528 C17.7648916,26.872512 25.9265332,42.0881451 21.1226756,64.5291117 Z" id="Fill-9-Copy" fill="#EAEDF2"></path>
                        <path d="M2.15038363,1.49180528 C10.6674809,-10.3403101 45.9194511,56.2719952 24.567356,64.5752947 C7.9138589,71.0513843 13.0550033,45.2115562 12.5452298,38.1427852 C11.6708934,26.0252763 -5.62798386,12.2971954 2.15038363,1.49180528 C4.09728043,-1.21309527 0.583415977,3.66817087 2.15038363,1.49180528 L2.15038363,1.49180528 Z" id="Stroke-11" stroke="#323742" stroke-width="3.0663633"></path>
                    </g>
                    <path d="M88.7451697,156.439931 C88.0424243,150.311601 83.0978835,145.286425 82.1226661,142.210177 C81.1474488,139.133929 80.3680766,141.064021 79.9777753,132.681211 C80.4091812,113.131563 83.097881,112.784712 83.097881,102.760601 C83.097881,99.0912008 82.442897,94.7369332 81.2147539,91.3759733 C81.3553546,90.0953515 81.505175,88.8293259 81.6638309,87.5786647 C80.875161,86.1701344 79.3700423,85.2167741 77.6409613,85.2167741 L55.0722478,85.2167741 L32.3748424,85.2167741 C30.6457614,85.2167741 29.1406427,86.1701344 28.3523569,87.5786647 C28.5110129,88.8293259 28.6604491,90.0953515 28.8014339,91.3759733 C27.5729067,94.7369332 26.9179227,99.0912008 26.9179227,102.760601 C26.9179227,112.784712 29.6066225,113.131563 30.0380284,132.681211 C29.6481112,141.064021 28.8705818,148.934813 27.7649841,156.439932 C27.2118012,161.131448 25.7654581,170.739184 23.7167603,194.563205 C19.6650791,197.635698 19.424214,202.056417 19.5648146,202.501216 C20.089186,204.162106 22.8293626,204.244306 24.6917453,204.244306 L38.4285641,208.114719 C40.4851373,204.132289 40.8662013,195.873019 41.624523,191.41581 C46.3319565,163.73648 48.2880731,153.94053 55.0080939,151.978882 C59.6788733,153.342412 61.8244409,158.895136 67.7433923,166.448991 C73.6623436,174.002845 69.5982745,180.951145 77.6409631,179.25642 C85.6748207,177.563556 89.427223,162.387814 88.7451697,156.439931 Z" id="Stroke-15-Copy" fill="#FFFFFF" sketch:type="MSShapeGroup"></path>
                    <path d="M55.0722478,85.2167741 L32.3748424,85.2167741 C30.6457614,85.2167741 29.1406427,86.1701344 28.3523569,87.5786647 C28.5110129,88.8293259 28.6604491,90.0953515 28.8014339,91.3759733 C27.5729067,94.7369332 26.9179227,99.0912008 26.9179227,102.760601 C26.9179227,112.784712 29.6066225,113.131563 30.0380284,132.681211 C29.6481112,141.064021 28.8705818,148.934813 27.7649841,156.439932 C27.2118012,161.131448 25.7654581,170.739184 23.7167603,194.563205 C19.6650791,197.635698 19.424214,202.056417 19.5648146,202.501216 C20.089186,204.162106 22.8293626,204.244306 24.6917453,204.244306 L33.1492986,204.244306 C33.4301158,200.188876 34.4460623,168.82567 35.5324122,162.881207 C37.304426,153.184819 39.8872242,143.318201 43.1093304,130.764186 C37.304425,85.6616402 55.0722478,85.2167741 55.0722478,85.2167741 Z" id="Fill-13-Copy" fill="#EAEDF2" sketch:type="MSShapeGroup"></path>
                    <path d="M88.7451697,156.439931 C88.0424243,150.311601 83.0978835,145.286425 82.1226661,142.210177 C81.1474488,139.133929 80.3680766,141.064021 79.9777753,132.681211 C80.4091812,113.131563 83.097881,112.784712 83.097881,102.760601 C83.097881,99.0912008 82.442897,94.7369332 81.2147539,91.3759733 C81.3553546,90.0953515 81.505175,88.8293259 81.6638309,87.5786647 C80.875161,86.1701344 79.3700423,85.2167741 77.6409613,85.2167741 L55.0722478,85.2167741 L32.3748424,85.2167741 C30.6457614,85.2167741 29.1406427,86.1701344 28.3523569,87.5786647 C28.5110129,88.8293259 28.6604491,90.0953515 28.8014339,91.3759733 C27.5729067,94.7369332 26.9179227,99.0912008 26.9179227,102.760601 C26.9179227,112.784712 29.6066225,113.131563 30.0380284,132.681211 C29.6481112,141.064021 28.8705818,148.934813 27.7649841,156.439932 C27.2118012,161.131448 25.7654581,170.739184 23.7167603,194.563205 C19.6650791,197.635698 19.424214,202.056417 19.5648146,202.501216 C20.089186,204.162106 22.8293626,204.244306 24.6917453,204.244306 L38.4285641,208.114719 C40.4851373,204.132289 40.8662013,195.873019 41.624523,191.41581 C46.3319565,163.73648 48.2880731,153.94053 55.0080939,151.978882 C59.6788733,153.342412 61.8244409,158.895136 67.7433923,166.448991 C73.6623436,174.002845 69.5982745,180.951145 77.6409631,179.25642 C85.6748207,177.563556 89.427223,162.387814 88.7451697,156.439931 Z" id="Stroke-15" stroke="#323742" stroke-width="3.0663633" sketch:type="MSShapeGroup"></path>
                    <path d="M98.0979372,44.1216065 C96.0138971,19.1882772 78.8060646,1.03640481 55.0080555,1.03640481 C31.2100465,1.03640481 14.0018298,19.1882772 11.9181739,44.1216065 C9.67278873,70.9827823 19.6120273,87.206424 55.0080555,87.206424 L55.0080555,87.206424 C90.4040838,87.206424 100.343322,70.9827823 98.0979372,44.1216065" id="Fill-17" fill="#FEFEFE" sketch:type="MSShapeGroup"></path>
                    <path d="M62.5760181,29.9595035 C38.5347479,20.4050628 32.8597488,16.2098584 27.4493627,11.2135306 C18.694136,18.9330425 13.0550173,30.5179733 11.9181739,44.1216065 C9.67278873,70.9827823 19.6120273,87.206424 55.0080555,87.206424 C66.6314601,73.9682608 62.5760181,29.9595035 62.5760181,29.9595035 Z" id="Fill-17" fill="#EAEDF2" sketch:type="MSShapeGroup"></path>
                    <path d="M65.9253139,16.0949265 L57.3817099,13.9016601 L60.5014315,1.75303829 C59.7169873,1.65662675 58.9237075,1.58249358 58.1227446,1.52795 L43.9293753,16.2140005 L52.4729792,18.4072669 L48.413999,34.2137655 L65.9253139,16.0949265 Z" id="Fill-27" fill="#323742" sketch:type="MSShapeGroup"></path>
                    <path d="M98.0979372,44.1216065 C96.0138971,19.1882772 78.8060646,1.03640481 55.0080555,1.03640481 C31.2100465,1.03640481 14.0018298,19.1882772 11.9181739,44.1216065 C9.67278873,70.9827823 19.6120273,87.206424 55.0080555,87.206424 L55.0080555,87.206424 C90.4040838,87.206424 100.343322,70.9827823 98.0979372,44.1216065 L98.0979372,44.1216065 Z" id="Stroke-19" stroke="#323742" stroke-width="3.0663633" sketch:type="MSShapeGroup"></path>
                    <mask id="mask-2" sketch:name="Clip 22" fill="white">
                        <use xlink:href="#path-1"></use>
                    </mask>
                    <g id="Clip-22"></g>
                    <path d="M69.4137089,130.800494 L40.6020948,130.800494 L40.6020948,101.992266 L69.4137089,101.992266 L69.4137089,130.800494 Z" id="Fill-21" stroke="#D5D8DF" stroke-width="1.53318165" fill="#EAEDF2" sketch:type="MSShapeGroup" mask="url(#mask-2)"></path>
                    <path d="M46.7485341,107.550718 L63.2671928,107.550718" id="Stroke-24" stroke="#323742" stroke-width="1.53318165" sketch:type="MSShapeGroup" mask="url(#mask-2)"></path>
                    <path d="M46.7485341,114.464692 L63.2671928,114.464692" id="Stroke-25" stroke="#323742" stroke-width="1.53318165" sketch:type="MSShapeGroup" mask="url(#mask-2)"></path>
                    <path d="M59.3112045,123.502525 C59.3112045,125.879012 57.3842838,127.805706 55.0079018,127.805706 C52.6307516,127.805706 50.704215,125.879012 50.704215,123.502525 C50.704215,121.126038 52.6307516,119.199344 55.0079018,119.199344 C57.3842838,119.199344 59.3112045,121.126038 59.3112045,123.502525 L59.3112045,123.502525 Z" id="Stroke-26" fill="#1ACCAF" sketch:type="MSShapeGroup" mask="url(#mask-2)"></path>
                    <path d="M92.7085135,49.0990921 C90.8856987,29.2025934 75.8295175,29.267508 55.0079403,29.267508 C34.1867472,29.267508 19.1309501,29.2025934 17.3077512,49.0990921 C15.3435674,70.533566 24.0396809,83.4795996 55.0079403,83.4795996 C85.976968,83.4795996 94.6726972,70.533566 92.7085135,49.0990921" id="Fill-29" fill="url(#radialGradient-3)" sketch:type="MSShapeGroup" mask="url(#mask-2)"></path>
                    <path d="M68.4382182,35.2156023 C68.6558776,34.7034351 68.6543654,33.876513 68.4382182,33.3764347 L67.7264328,31.729648 C67.5087734,31.226071 67.7499929,31.0017706 68.2451256,31.2198136 L69.825729,31.9158687 C70.3298546,32.1378719 71.1507832,32.1457721 71.664021,31.9315539 L73.4068336,31.2041284 C73.9179687,30.9907878 74.1543654,31.2295697 73.9382182,31.729648 L73.2264328,33.3764347 C73.0087734,33.8800117 73.0043946,34.6931315 73.2264328,35.2156023 L73.9382182,36.8904804 C74.1558776,37.4026476 73.9200714,37.6457721 73.4068336,37.4315539 L71.664021,36.7041284 C71.1528859,36.4907878 70.3208617,36.5017706 69.825729,36.7198136 L68.2451256,37.4158687 C67.741,37.6378719 67.5043946,37.4129512 67.7264328,36.8904804 L68.4382182,35.2156023 Z" id="Rectangle-66" opacity="0.580631996" fill="#FFFFFF" sketch:type="MSShapeGroup" mask="url(#mask-2)">
                        <g transform="translate(70.832326, 34.317841) rotate(-315.000000) translate(-70.832326, -34.317841) "></g>
                    </path>
                    <path d="M68.4382182,63.2156023 C68.6558776,62.7034351 68.6543654,61.876513 68.4382182,61.3764347 L67.7264328,59.729648 C67.5087734,59.226071 67.7499929,59.0017706 68.2451256,59.2198136 L69.825729,59.9158687 C70.3298546,60.1378719 71.1507832,60.1457721 71.664021,59.9315539 L73.4068336,59.2041284 C73.9179687,58.9907878 74.1543654,59.2295697 73.9382182,59.729648 L73.2264328,61.3764347 C73.0087734,61.8800117 73.0043946,62.6931315 73.2264328,63.2156023 L73.9382182,64.8904804 C74.1558776,65.4026476 73.9200714,65.6457721 73.4068336,65.4315539 L71.664021,64.7041284 C71.1528859,64.4907878 70.3208617,64.5017706 69.825729,64.7198136 L68.2451256,65.4158687 C67.741,65.6378719 67.5043946,65.4129512 67.7264328,64.8904804 L68.4382182,63.2156023 Z" id="Rectangle-66" opacity="0.580631996" fill="#FFFFFF" sketch:type="MSShapeGroup" mask="url(#mask-2)">
                        <g transform="translate(70.832326, 62.317841) rotate(-315.000000) translate(-70.832326, -62.317841) "></g>
                    </path>
                    <path d="M46.2557615,50.6288686 C46.9058388,49.0991936 46.8964907,46.6182709 46.2428423,45.1059898 L45.6228188,43.6715033 C44.9656065,42.1509766 45.6665061,41.4616236 47.1840608,42.1299136 L48.4940075,42.7067788 C50.01347,43.375909 52.480829,43.4026278 54.0138676,42.7627591 L55.6642007,42.0739333 C57.1932728,41.4357202 57.8964907,42.1592223 57.2428423,43.6715033 L56.6228188,45.1059898 C55.9656065,46.6265165 55.9553907,49.0887656 56.6098996,50.6288686 L57.2557615,52.1486245 C57.9058388,53.6782996 57.1972393,54.4026278 55.6642007,53.7627591 L54.0138676,53.0739333 C52.4847955,52.4357202 50.0115622,52.4616236 48.4940075,53.1299136 L47.1840608,53.7067788 C45.6645983,54.375909 44.9553907,53.6887275 45.6098996,52.1486245 L46.2557615,50.6288686 Z" id="Rectangle-66" opacity="0.580631996" fill="#FFFFFF" sketch:type="MSShapeGroup" mask="url(#mask-2)">
                        <g transform="translate(51.432831, 47.918346) rotate(-315.000000) translate(-51.432831, -47.918346) "></g>
                    </path>
                    <path d="M55.0079403,29.267508 C69.1519311,31.2471282 85.5262085,34.8929782 88.2878409,53.646939 C91.0239761,72.2277519 70.1968988,81.3892599 55.0079403,83.4795996 C85.976968,83.4795996 94.6726972,70.533566 92.7085135,49.0990921 C90.8856987,29.2025934 73.9897167,29.2675081 55.0079403,29.267508 Z" id="Fill-29" fill="#FFFFFF" sketch:type="MSShapeGroup" mask="url(#mask-2)"></path>
                    <path d="M92.7085135,49.0990921 C90.8856987,29.2025934 75.8295175,29.267508 55.0079403,29.267508 C34.1867472,29.267508 19.1309501,29.2025934 17.3077512,49.0990921 C15.3435674,70.533566 24.0396809,83.4795996 55.0079403,83.4795996 C85.976968,83.4795996 94.6726972,70.533566 92.7085135,49.0990921 L92.7085135,49.0990921 Z" id="Stroke-30" stroke="#323742" stroke-width="1.53318165" sketch:type="MSShapeGroup" mask="url(#mask-2)"></path>
                </g>
                <g id="Fill-5-+-Oval-4-+-Stroke-7" transform="translate(17.785031, 119.578799) scale(-1, -1) rotate(-178.000000) translate(-17.785031, -119.578799) translate(1.785031, 86.578799)" sketch:type="MSShapeGroup">
                    <path d="M29.1822466,1.49180528 C20.6651494,-10.3403101 -14.5864366,56.2719952 6.7652743,64.5752947 C23.4187714,71.0513843 18.2780111,45.2115562 18.7877846,38.1427852 C19.6617369,26.0252763 36.9606141,12.2971954 29.1822466,1.49180528 C27.2353498,-1.21309527 30.7492143,3.66855498 29.1822466,1.49180528" id="Fill-5" fill="#EAEDF2"></path>
                    <path d="M13.0299016,65.7740108 C17.5914032,65.7740108 20.3602073,61.0395219 20.3602073,55.3117977 C20.3602073,49.5840735 19.086724,43.8091211 14.5252224,43.8091211 C9.96372072,43.8091211 7.13373712,49.5840738 7.13373712,55.311798 C7.13373712,61.0395221 8.4683999,65.7740108 13.0299016,65.7740108 Z" id="Oval-4" fill="#FFFFFF"></path>
                    <path d="M29.1822466,1.49180528 C20.6651494,-10.3403101 -14.5864366,56.2719952 6.7652743,64.5752947 C23.4187714,71.0513843 18.2780111,45.2115562 18.7877846,38.1427852 C19.6617369,26.0252763 36.9606141,12.2971954 29.1822466,1.49180528 C27.2353498,-1.21309527 30.7492143,3.66855498 29.1822466,1.49180528 L29.1822466,1.49180528 Z" id="Stroke-7" stroke="#323742" stroke-width="3.0663633"></path>
                </g>
                <g id="laptop" transform="translate(112.682369, 105.242662) rotate(-11.000000) translate(-112.682369, -105.242662) translate(66.682369, 73.742662)">
                    <path d="M82.5545553,49.8541408 L82.5545553,2.70280993 C82.5545553,1.20941169 81.3442892,3.83693077e-13 79.8513504,3.83693077e-13 L12.3474287,3.83693077e-13 C10.8488877,3.83693077e-13 9.64422375,1.21008922 9.64422375,2.70280993 L9.64422375,49.8541408 L-3.90798505e-13,49.8541408 L-3.90798505e-13,58.7641327 C-3.90798505e-13,61.0973777 1.90019072,62.9939918 4.24419476,62.9939918 L87.5688153,62.9939918 C89.9164397,62.9939918 91.8130101,61.1002194 91.8130101,58.7641327 L91.8130101,49.8541408 L82.5545553,49.8541408 Z" id="Rectangle-9" stroke="#323742" stroke-width="3.08187781" fill="#EAEDF2" sketch:type="MSShapeGroup"></path>
                    <mask id="mask-5" sketch:name="Clip 2" fill="white">
                        <use xlink:href="#path-4"></use>
                    </mask>
                    <use id="Clip-2" fill="#323742" sketch:type="MSShapeGroup" xlink:href="#path-4"></use>
                </g>
                <g id="Group" transform="translate(35.075475, 184.232569) rotate(-350.000000) translate(-35.075475, -184.232569) translate(21.575475, 159.232569)" sketch:type="MSShapeGroup">
                    <rect id="Rectangle-8-Copy" fill="#FFFFFF" x="0.956304756" y="0.707628295" width="25.1200008" height="41.9694034" rx="38.4"></rect>
                    <path d="M14,44.4674974 C14,44.2455407 13.9659541,12.0745584 13.9429496,11.8587062 C13.6151343,8.78279629 11.0118286,6.3868928 7.84892975,6.3868928 C4.64122824,6.3868928 2.00908558,8.85115323 1.74235393,11.9898219 C1.72762295,12.1631634 1.74235393,44.2903434 1.74235393,44.4674974" id="Oval-17" fill="#EAEDF2"></path>
                    <path d="M24.7458071,45.6075015 C24.7458071,45.1910679 24.6819303,11.7148567 24.6387695,11.3098763 C24.0237245,5.53887394 19.1394192,1.04369524 13.2052087,1.04369524 C7.18693976,1.04369524 2.24853067,5.66712477 1.74809046,11.5558748 C1.7204523,11.8810969 1.74809046,45.2751263 1.74809046,45.6075015 C4.61099196,46.0855276 21.0963895,45.6075015 24.7458071,45.6075015 Z" id="Oval-17" stroke="#323742" stroke-width="3"></path>
                    <path d="M24.9648026,45.3538008 C24.9648026,47.5831735 23.4662145,49.3904097 21.616893,49.3904097 L4.87926605,49.3904097 C3.03032873,49.3904097 1.53135649,47.5831735 1.53135649,45.3538008 C1.53135649,43.1240439 3.03032873,41.3164237 4.87926605,41.3164237 L21.616893,41.3164237 C23.4662145,41.3164237 24.9648026,43.1240439 24.9648026,45.3538008" id="Fill-35" fill="#FEFEFE"></path>
                    <path d="M24.9648026,45.3538008 C24.9648026,47.5831735 23.4662145,49.3904097 21.616893,49.3904097 L4.87926605,49.3904097 C3.03032873,49.3904097 1.53135649,47.5831735 1.53135649,45.3538008 C1.53135649,43.1240439 3.03032873,41.3164237 4.87926605,41.3164237 L21.616893,41.3164237 C23.4662145,41.3164237 24.9648026,43.1240439 24.9648026,45.3538008 L24.9648026,45.3538008 Z" id="Stroke-36" stroke="#323742" stroke-width="3.0663633"></path>
                    <path d="M13.2480795,33.6418349 C6.77737518,33.6418349 1.53135649,38.6613805 1.53135649,44.8539972 L24.9648026,44.8539972 C24.9648026,38.6613805 19.7195522,33.6418349 13.2480795,33.6418349" id="Fill-37" fill="#FEFEFE"></path>
                    <path d="M6.64350507,35.5915756 C3.55703951,37.6107871 1.53135649,41.005909 1.53135649,44.8539972 C1.53135649,44.8539972 9.02590162,44.8539975 7.48700418,44.8539972 C5.94810675,44.8539969 7.63038229,36.7994671 8.7885778,34.4443515 C9.94677331,32.0892359 8.06476084,34.9069821 6.64350507,35.5915756 Z" id="Fill-37-Copy" fill="#EAEDF2"></path>
                    <path d="M13.2480795,33.2577252 C6.77737518,33.2577252 1.53135649,38.2772708 1.53135649,44.4698875 L24.9648026,44.4698875 C24.9648026,38.2772708 19.7195522,33.2577252 13.2480795,33.2577252 L13.2480795,33.2577252 Z" id="Stroke-38" stroke="#323742" stroke-width="1.91647706"></path>
                </g>
                <g id="Group" transform="translate(69.000000, 144.000000)" sketch:type="MSShapeGroup">
                    <rect id="Rectangle-8-Copy" fill="#FFFFFF" x="0.992546152" y="0.878130657" width="25.1200008" height="41.9694034" rx="38.4"></rect>
                    <path d="M14,44.4674974 C14,44.2455407 13.9659541,12.0745584 13.9429496,11.8587062 C13.6151343,8.78279629 11.0118286,6.3868928 7.84892975,6.3868928 C4.64122824,6.3868928 2.00908558,8.85115323 1.74235393,11.9898219 C1.72762295,12.1631634 1.74235393,44.2903434 1.74235393,44.4674974" id="Oval-17" fill="#EAEDF2"></path>
                    <path d="M24.7458071,45.6075015 C24.7458071,45.1910679 24.6819303,11.7148567 24.6387695,11.3098763 C24.0237245,5.53887394 19.1394192,1.04369524 13.2052087,1.04369524 C7.18693976,1.04369524 2.24853067,5.66712477 1.74809046,11.5558748 C1.7204523,11.8810969 1.74809046,45.2751263 1.74809046,45.6075015 C4.61099196,46.0855276 21.0963895,45.6075015 24.7458071,45.6075015 Z" id="Oval-17" stroke="#323742" stroke-width="3"></path>
                    <path d="M24.9648026,45.3538008 C24.9648026,47.5831735 23.4662145,49.3904097 21.616893,49.3904097 L4.87926605,49.3904097 C3.03032873,49.3904097 1.53135649,47.5831735 1.53135649,45.3538008 C1.53135649,43.1240439 3.03032873,41.3164237 4.87926605,41.3164237 L21.616893,41.3164237 C23.4662145,41.3164237 24.9648026,43.1240439 24.9648026,45.3538008" id="Fill-35" fill="#FEFEFE"></path>
                    <path d="M24.9648026,45.3538008 C24.9648026,47.5831735 23.4662145,49.3904097 21.616893,49.3904097 L4.87926605,49.3904097 C3.03032873,49.3904097 1.53135649,47.5831735 1.53135649,45.3538008 C1.53135649,43.1240439 3.03032873,41.3164237 4.87926605,41.3164237 L21.616893,41.3164237 C23.4662145,41.3164237 24.9648026,43.1240439 24.9648026,45.3538008 L24.9648026,45.3538008 Z" id="Stroke-36" stroke="#323742" stroke-width="3.0663633"></path>
                    <path d="M13.2480795,33.6418349 C6.77737518,33.6418349 1.53135649,38.6613805 1.53135649,44.8539972 L24.9648026,44.8539972 C24.9648026,38.6613805 19.7195522,33.6418349 13.2480795,33.6418349" id="Fill-37" fill="#FEFEFE"></path>
                    <path d="M6.64350507,35.5915756 C3.55703951,37.6107871 1.53135649,41.005909 1.53135649,44.8539972 C1.53135649,44.8539972 9.02590162,44.8539975 7.48700418,44.8539972 C5.94810675,44.8539969 7.63038229,36.7994671 8.7885778,34.4443515 C9.94677331,32.0892359 8.06476084,34.9069821 6.64350507,35.5915756 Z" id="Fill-37-Copy" fill="#EAEDF2"></path>
                    <path d="M13.2480795,33.2577252 C6.77737518,33.2577252 1.53135649,38.2772708 1.53135649,44.4698875 L24.9648026,44.4698875 C24.9648026,38.2772708 19.7195522,33.2577252 13.2480795,33.2577252 L13.2480795,33.2577252 Z" id="Stroke-38" stroke="#323742" stroke-width="1.91647706"></path>
                </g>
            </g>
        </g>
    </g>
</svg>