<?xml version="1.0" encoding="UTF-8" standalone="no"?>
<svg width="91px" height="184px" viewBox="0 0 91 184" version="1.1" xmlns="http://www.w3.org/2000/svg" xmlns:xlink="http://www.w3.org/1999/xlink" xmlns:sketch="http://www.bohemiancoding.com/sketch/ns">
    <!-- Generator: Sketch 3.5.1 (25234) - http://www.bohemiancoding.com/sketch -->
    <title>jimmyman-01-body</title>
    <desc>Created with Sketch.</desc>
    <defs>
        <path id="path-1" d="M-2.2595259e-12,0.268108575 L110.084183,0.268108575 L110.084183,208.95568 L-2.2595259e-12,208.95568 L-2.2595259e-12,0.268108575 Z"></path>
        <radialGradient cx="-118.956924%" cy="146.352769%" fx="-118.956924%" fy="146.352769%" r="302.073785%" id="radialGradient-3">
            <stop stop-color="#E34234" offset="0%"></stop>
            <stop stop-color="#F38CB6" offset="21.05%"></stop>
            <stop stop-color="#FBCCC9" offset="37.44%"></stop>
            <stop stop-color="#F2F6DD" offset="59.3%"></stop>
            <stop stop-color="#BEE2CE" offset="81.76%"></stop>
            <stop stop-color="#7DCAB0" offset="100%"></stop>
        </radialGradient>
    </defs>
    <g id="Page-1" stroke="none" stroke-width="1" fill="none" fill-rule="evenodd" sketch:type="MSPage">
        <g id="Desktop-HD-Copy" sketch:type="MSArtboardGroup" transform="translate(-1085.000000, -177.000000)">
            <g id="jimmyman-01-body" sketch:type="MSLayerGroup" transform="translate(1074.306935, 178.203178)">
                <g id="JIMMY-Copy" transform="translate(0.793090, -0.000000)">
                    <path d="M84.9721341,144.235807 C84.9721341,146.99794 82.9084542,149.237683 80.3622759,149.237683 L29.6538351,149.237683 C27.1080409,149.237683 25.0439769,146.99794 25.0439769,144.235807 L21.2024284,80.8749901 C21.2024284,78.1124731 23.2664924,75.8727294 25.8122866,75.8727294 L84.2038244,75.8727294 C86.7500028,75.8727294 88.8136827,78.1124731 88.8136827,80.8749901 L84.9721341,144.235807 Z" id="Fill-1" fill="#FEFEFE" sketch:type="MSShapeGroup"></path>
                    <path d="M54.2397458,144.235807 C54.2397458,146.99794 52.1760659,149.237683 49.6298876,149.237683 L29.6538351,149.237683 C27.1080409,149.237683 25.0439769,146.99794 25.0439769,144.235807 L21.2024284,80.8749901 C21.2024284,78.1124731 23.2664924,75.8727294 25.8122866,75.8727294 L53.4714361,75.8727294 C56.0176145,75.8727294 58.0812943,78.1124731 58.0812943,80.8749901 L54.2397458,144.235807 Z" id="Fill-1" fill="#D8D8D8" sketch:type="MSShapeGroup"></path>
                    <path d="M84.9721341,144.235807 C84.9721341,146.99794 82.9084542,149.237683 80.3622759,149.237683 L29.6538351,149.237683 C27.1080409,149.237683 25.0439769,146.99794 25.0439769,144.235807 L21.2024284,80.8749901 C21.2024284,78.1124731 23.2664924,75.8727294 25.8122866,75.8727294 L84.2038244,75.8727294 C86.7500028,75.8727294 88.8136827,78.1124731 88.8136827,80.8749901 L84.9721341,144.235807 L84.9721341,144.235807 Z" id="Stroke-3" stroke="#323742" stroke-width="3.0663633" sketch:type="MSShapeGroup"></path>
                    <path d="M88.7451697,156.439931 C88.0424243,150.311601 83.0978835,145.286425 82.1226661,142.210177 C81.1474488,139.133929 80.3680766,141.064021 79.9777753,132.681211 C80.4091812,113.131563 83.097881,112.784712 83.097881,102.760601 C83.097881,99.0912008 82.442897,94.7369332 81.2147539,91.3759733 C81.3553546,90.0953515 81.505175,88.8293259 81.6638309,87.5786647 C80.875161,86.1701344 79.3700423,85.2167741 77.6409613,85.2167741 L55.0722478,85.2167741 L32.3748424,85.2167741 C30.6457614,85.2167741 29.1406427,86.1701344 28.3523569,87.5786647 C28.5110129,88.8293259 28.6604491,90.0953515 28.8014339,91.3759733 C27.5729067,94.7369332 26.9179227,99.0912008 26.9179227,102.760601 C26.9179227,112.784712 29.6066225,113.131563 30.0380284,132.681211 C29.6481112,141.064021 28.8705818,148.934813 27.7649841,156.439932 C27.3848953,159.663446 26.583147,165.207899 25.4540695,176.090011 C24.9398825,181.045774 42.9837725,183.462448 43.5951439,180.063098 C47.0315359,160.956056 49.3030604,153.644244 55.0080939,151.978882 C59.6788733,153.342412 61.8244409,158.895136 67.7433923,166.448991 C73.6623436,174.002845 69.5982745,180.951145 77.6409631,179.25642 C85.6748207,177.563556 89.427223,162.387814 88.7451697,156.439931 Z" id="Stroke-15-Copy" fill="#FFFFFF" sketch:type="MSShapeGroup"></path>
                    <path d="M55.0722478,85.2167741 L32.3748424,85.2167741 C30.6457614,85.2167741 29.1406427,86.1701344 28.3523569,87.5786647 C28.5110129,88.8293259 28.6604491,90.0953515 28.8014339,91.3759733 C27.5729067,94.7369332 26.9179227,99.0912008 26.9179227,102.760601 C26.9179227,112.784712 29.6066225,113.131563 30.0380284,132.681211 C29.6481112,141.064021 28.8705818,148.934813 27.7649841,156.439932 C27.3826239,159.68271 26.5735494,165.27425 25.4337922,176.28568 C24.9245959,181.205131 28.801434,180.05748 34.1632254,181.665232 C34.5642347,173.456435 35.0411241,165.569516 35.5324122,162.881207 C37.304426,153.184819 39.8872242,143.318201 43.1093304,130.764186 C37.304425,85.6616402 55.0722478,85.2167741 55.0722478,85.2167741 Z" id="Fill-13-Copy" fill="#EAEDF2" sketch:type="MSShapeGroup"></path>
                    <path d="M88.7451697,156.439931 C88.0424243,150.311601 83.0978835,145.286425 82.1226661,142.210177 C81.1474488,139.133929 80.3680766,141.064021 79.9777753,132.681211 C80.4091812,113.131563 83.097881,112.784712 83.097881,102.760601 C83.097881,99.0912008 82.442897,94.7369332 81.2147539,91.3759733 C81.3553546,90.0953515 81.505175,88.8293259 81.6638309,87.5786647 C80.875161,86.1701344 79.3700423,85.2167741 77.6409613,85.2167741 L55.0722478,85.2167741 L32.3748424,85.2167741 C30.6457614,85.2167741 29.1406427,86.1701344 28.3523569,87.5786647 C28.5110129,88.8293259 28.6604491,90.0953515 28.8014339,91.3759733 C27.5729067,94.7369332 26.9179227,99.0912008 26.9179227,102.760601 C26.9179227,112.784712 29.6066225,113.131563 30.0380284,132.681211 C29.6481112,141.064021 28.8705818,148.934813 27.7649841,156.439932 C27.3886403,159.631685 26.5989052,165.098867 25.4873481,175.769902 C24.9650418,180.784084 43.0800917,182.902118 43.7312944,179.308926 C47.0924051,160.763063 49.3787396,153.622153 55.0080939,151.978882 C59.6788733,153.342412 61.8244409,158.895136 67.7433923,166.448991 C73.6623436,174.002845 69.5982745,180.951145 77.6409631,179.25642 C85.6748207,177.563556 89.427223,162.387814 88.7451697,156.439931 Z" id="Stroke-15" stroke="#323742" stroke-width="3.0663633" sketch:type="MSShapeGroup"></path>
                    <path d="M98.0979372,44.1216065 C96.0138971,19.1882772 78.8060646,1.03640481 55.0080555,1.03640481 C31.2100465,1.03640481 14.0018298,19.1882772 11.9181739,44.1216065 C9.67278873,70.9827823 19.6120273,87.206424 55.0080555,87.206424 L55.0080555,87.206424 C90.4040838,87.206424 100.343322,70.9827823 98.0979372,44.1216065" id="Fill-17" fill="#FEFEFE" sketch:type="MSShapeGroup"></path>
                    <path d="M62.5760181,29.9595035 C38.5347479,20.4050628 32.8597488,16.2098584 27.4493627,11.2135306 C18.694136,18.9330425 13.0550173,30.5179733 11.9181739,44.1216065 C9.67278873,70.9827823 19.6120273,87.206424 55.0080555,87.206424 C66.6314601,73.9682608 62.5760181,29.9595035 62.5760181,29.9595035 Z" id="Fill-17" fill="#EAEDF2" sketch:type="MSShapeGroup"></path>
                    <path d="M65.9253139,16.0949265 L57.3817099,13.9016601 L60.5014315,1.75303829 C59.7169873,1.65662675 58.9237075,1.58249358 58.1227446,1.52795 L43.9293753,16.2140005 L52.4729792,18.4072669 L48.413999,34.2137655 L65.9253139,16.0949265 Z" id="Fill-27" fill="#323742" sketch:type="MSShapeGroup"></path>
                    <path d="M98.0979372,44.1216065 C96.0138971,19.1882772 78.8060646,1.03640481 55.0080555,1.03640481 C31.2100465,1.03640481 14.0018298,19.1882772 11.9181739,44.1216065 C9.67278873,70.9827823 19.6120273,87.206424 55.0080555,87.206424 L55.0080555,87.206424 C90.4040838,87.206424 100.343322,70.9827823 98.0979372,44.1216065 L98.0979372,44.1216065 Z" id="Stroke-19" stroke="#323742" stroke-width="3.0663633" sketch:type="MSShapeGroup"></path>
                    <mask id="mask-2" sketch:name="Clip 22" fill="white">
                        <use xlink:href="#path-1"></use>
                    </mask>
                    <g id="Clip-22"></g>
                    <path d="M69.4137089,130.800494 L40.6020948,130.800494 L40.6020948,101.992266 L69.4137089,101.992266 L69.4137089,130.800494 Z" id="Fill-21" stroke="#D5D8DF" stroke-width="1.53318165" fill="#EAEDF2" sketch:type="MSShapeGroup" mask="url(#mask-2)"></path>
                    <path d="M46.7485341,107.550718 L63.2671928,107.550718" id="Stroke-24" stroke="#323742" stroke-width="1.53318165" sketch:type="MSShapeGroup" mask="url(#mask-2)"></path>
                    <path d="M46.7485341,114.464692 L63.2671928,114.464692" id="Stroke-25" stroke="#323742" stroke-width="1.53318165" sketch:type="MSShapeGroup" mask="url(#mask-2)"></path>
                    <path d="M59.3112045,123.502525 C59.3112045,125.879012 57.3842838,127.805706 55.0079018,127.805706 C52.6307516,127.805706 50.704215,125.879012 50.704215,123.502525 C50.704215,121.126038 52.6307516,119.199344 55.0079018,119.199344 C57.3842838,119.199344 59.3112045,121.126038 59.3112045,123.502525 L59.3112045,123.502525 Z" id="Stroke-26" fill="#1ACCAF" sketch:type="MSShapeGroup" mask="url(#mask-2)"></path>
                    <path d="M92.7085135,49.0990921 C90.8856987,29.2025934 75.8295175,29.267508 55.0079403,29.267508 C34.1867472,29.267508 19.1309501,29.2025934 17.3077512,49.0990921 C15.3435674,70.533566 24.0396809,83.4795996 55.0079403,83.4795996 C85.976968,83.4795996 94.6726972,70.533566 92.7085135,49.0990921" id="Fill-29" fill="url(#radialGradient-3)" sketch:type="MSShapeGroup" mask="url(#mask-2)"></path>
                    <path d="M55.0079403,29.267508 C69.1519311,31.2471282 85.5262085,34.8929782 88.2878409,53.646939 C91.0239761,72.2277519 70.1968988,81.3892599 55.0079403,83.4795996 C85.976968,83.4795996 94.6726972,70.533566 92.7085135,49.0990921 C90.8856987,29.2025934 73.9897167,29.2675081 55.0079403,29.267508 Z" id="Fill-29" fill="#FFFFFF" sketch:type="MSShapeGroup" mask="url(#mask-2)"></path>
                    <path d="M92.7085135,49.0990921 C90.8856987,29.2025934 75.8295175,29.267508 55.0079403,29.267508 C34.1867472,29.267508 19.1309501,29.2025934 17.3077512,49.0990921 C15.3435674,70.533566 24.0396809,83.4795996 55.0079403,83.4795996 C85.976968,83.4795996 94.6726972,70.533566 92.7085135,49.0990921 L92.7085135,49.0990921 Z" id="Stroke-30" stroke="#323742" stroke-width="1.53318165" sketch:type="MSShapeGroup" mask="url(#mask-2)"></path>
                </g>
            </g>
        </g>
    </g>
</svg>