<?xml version="1.0" encoding="UTF-8" standalone="no"?>
<svg width="160px" height="45px" viewBox="0 0 160 45" version="1.1" xmlns="http://www.w3.org/2000/svg" xmlns:xlink="http://www.w3.org/1999/xlink" xmlns:sketch="http://www.bohemiancoding.com/sketch/ns">
    <!-- Generator: Sketch 3.4.4 (17249) - http://www.bohemiancoding.com/sketch -->
    <title>masthead-logo</title>
    <desc>Created with Sketch.</desc>
    <defs></defs>
    <g id="Page-1" stroke="none" stroke-width="1" fill="none" fill-rule="evenodd" sketch:type="MSPage">
        <g id="masthead-logo" sketch:type="MSArtboardGroup" fill="#4A4A4A">
            <path d="M57,29.3225102 L57,1 L45.7090284,1 L45.7090284,27.6594134 C45.7090284,30.8125512 43.5320493,32.6472374 40.6088869,32.6472374 C38.3732686,32.6472374 37.0553534,32.0738063 36.1962896,31.2143929 C32.1267314,35.4 29.3765544,38.151296 28,39.5269441 C31.9552118,43.3107094 38.7749469,44 40.2072086,44 C48.5750177,44 56.8284804,39.2409618 57,29.3225102 Z M71.075539,1 L66,1 L66,44 L77.2934025,44 L77.2934025,21.9837653 L88.5284487,32.1881992 L99.7065975,21.9265689 L99.7065975,44 L111,44 L111,1 L105.924461,1 L88.5284487,16.9387449 L71.075539,1 Z M120,12.2240683 L131.220403,12.2240683 L131.220403,44 L142.5515,44 L142.5515,12.2240683 L154,12.2240683 L154,1 L120,1 L120,12.2240683 Z" id="Fill-7" sketch:type="MSShapeGroup"></path>
            <path d="M26,22.5664778 L15.9280608,19.8383575 L20.9214742,1 L3.23296945e-13,22.4337811 L10.0709836,25.1616425 L5.07757017,44 L26,22.5664778" id="Fill-17" sketch:type="MSShapeGroup"></path>
        </g>
    </g>
</svg>