<?xml version="1.0" encoding="UTF-8" standalone="no"?>
<svg width="299px" height="202px" viewBox="0 0 299 202" version="1.1" xmlns="http://www.w3.org/2000/svg" xmlns:xlink="http://www.w3.org/1999/xlink" xmlns:sketch="http://www.bohemiancoding.com/sketch/ns">
    <!-- Generator: Sketch 3.5 (25232) - http://www.bohemiancoding.com/sketch -->
    <title>starfield</title>
    <desc>Created with Sketch.</desc>
    <defs></defs>
    <g id="Page-1" stroke="none" stroke-width="1" fill="none" fill-rule="evenodd" sketch:type="MSPage">
        <g id="Desktop-HD-Copy-2" sketch:type="MSArtboardGroup" transform="translate(-572.000000, -340.000000)" fill="#FFFFFF">
            <g id="Group" sketch:type="MSLayerGroup" transform="translate(568.000000, 247.000000)">
                <g id="starfield" transform="translate(240.722144, 191.500000) scale(1, -1) translate(-240.722144, -191.500000) translate(-61.777856, 88.000000)" sketch:type="MSShapeGroup">
                    <path d="M366.7993,18.6816123 C366.813982,19.9002484 366.811723,20.7857078 366.469511,21.6316377 C366.336241,21.9591674 366.280899,22.3815676 365.882217,22.4515912 C365.336711,22.5475913 365.329934,22.8965797 365.290405,23.3178506 C365.248616,23.7628391 365.117605,24.197663 364.576616,24.312863 C363.947533,24.4472631 363.613227,23.9186981 363.446074,23.5651919 C362.488332,21.5367671 362.071579,19.4383186 363.250686,17.342129 C363.554498,16.8033993 363.868474,16.2793519 364.114686,15.7067397 C364.591298,14.5976566 365.336711,14.5502213 366.084382,15.4661749 C366.960806,16.5402462 366.745088,17.7950235 366.7993,18.6816123" id="Fill-1"></path>
                    <path d="M326.608026,27.0934766 C326.617062,26.9782765 326.634003,26.5807233 326.689344,26.1865584 C326.849721,25.0390753 327.228074,24.6392632 328.102239,24.6652397 C329.534334,24.707028 330.312499,25.3180402 330.400593,26.4440644 C330.529346,28.0873596 330.275229,29.670796 329.797487,31.245197 C329.622428,31.8189385 329.335557,32.2368212 328.802475,32.3599271 C328.237769,32.4898096 327.810851,32.0866093 327.444921,31.696962 C326.647556,30.8487732 326.811321,29.7103254 326.587697,28.6938541 C326.495085,28.2759715 326.591085,27.8163006 326.608026,27.0934766" id="Fill-3"></path>
                    <path d="M297.896102,48.9826204 C297.916431,47.9074197 298.166031,47.2444546 299.010832,47.0998898 C299.723491,46.9790426 300.560386,46.7441248 300.84048,47.8215843 C300.900339,48.0508551 301.081045,48.2146199 301.293374,48.2756082 C302.619305,48.6539614 302.439728,49.704315 302.306457,50.6586686 C302.164151,51.6841751 301.506833,52.5097757 300.997468,53.3771645 C300.702692,53.879753 300.113138,53.970106 299.57102,53.8673295 C298.953232,53.751 298.49582,53.3093997 298.41902,52.7153287 C298.243961,51.3724573 298.247349,50.0058681 297.896102,48.9826204" id="Fill-4"></path>
                    <path d="M253.443555,45.5740535 C253.457108,46.6142424 252.983884,47.4421017 252.650707,48.2948082 C252.386425,48.9747145 251.883836,48.9611616 251.359789,48.3399847 C250.882047,47.774149 250.47207,47.2026663 249.74247,46.8457719 C249.039975,46.5024305 248.828775,45.7039359 248.880728,44.8930177 C248.908963,44.4525468 249.021905,44.1204996 249.524493,44.0425701 C249.734564,44.0086877 250.038376,43.9781936 250.125341,43.8381464 C250.621153,43.0407812 251.281859,42.8894399 252.040824,43.3479814 C252.886754,43.8607347 253.70332,44.444641 253.443555,45.5740535" id="Fill-9"></path>
                    <path d="M314.905054,28.2330538 C314.98976,27.7293359 315.024772,27.3283944 315.126419,26.9455236 C315.484442,25.5958756 315.883125,25.4038755 317.241808,25.7325345 C317.591926,25.8172405 317.895738,25.9810053 318.230044,26.0792642 C319.44868,26.4350291 319.738939,27.1815708 319.071457,28.2703244 C318.79588,28.7198306 318.463833,29.1354544 318.156632,29.56689 C317.698091,30.2117845 317.083691,30.7832673 316.295361,30.5878789 C315.477666,30.3857141 315.068819,29.6369136 314.976207,28.7751718 C314.952489,28.5583246 314.919736,28.3426068 314.905054,28.2330538" id="Fill-12"></path>
                    <path d="M264.39095,9.71294756 C264.823515,9.63840633 265.066339,9.82927704 265.25721,10.1861714 C265.956316,11.4906428 265.48761,13.3869264 264.242997,14.2136564 C263.445632,14.7422214 262.128737,14.1820328 261.948031,13.2310675 C261.924313,13.1079616 261.91189,12.8865967 261.966101,12.8617496 C262.879796,12.4337023 262.70022,11.5154899 262.866243,10.7870188 C263.069537,9.89930062 263.608267,9.65308869 264.39095,9.71294756" id="Fill-17"></path>
                    <path d="M275.477263,60.8391929 C275.493075,59.9480864 276.446299,59.4364626 278.0591,59.4545332 C278.722065,59.4613096 279.360183,60.4630985 279.36696,61.5055463 C279.373736,62.4734528 278.351618,63.6356183 277.516982,63.6096418 C276.515193,63.5780182 275.455804,62.1391467 275.477263,60.8391929" id="Fill-18"></path>
                    <path d="M225.32683,42.0412511 C225.367489,42.7866634 225.088524,43.3999344 224.628853,43.9714171 C224.107065,44.6219587 223.483629,44.3452527 222.835346,44.2989467 C222.179158,44.2526408 222.196099,43.7703817 222.077511,43.3920285 C221.659628,42.0581923 222.154311,40.9028033 223.391017,40.2217676 C224.224524,39.7632261 225.082877,40.1754617 225.243254,41.1230388 C225.294077,41.4245919 225.299724,41.7340509 225.32683,42.0412511" id="Fill-22"></path>
                    <path d="M276.532135,36.7273653 C276.621358,34.9395053 277.027947,34.5769639 278.711901,34.8581876 C279.554442,34.9982348 279.815337,35.543741 279.667384,36.285765 C279.512654,37.0571537 279.206583,37.7878836 278.672371,38.3932487 C278.273689,38.8461432 277.768841,39.177061 277.170253,38.9669903 C276.59877,38.7670843 276.509546,38.1989898 276.511805,37.6467071 C276.512935,37.383554 276.523099,37.1204009 276.532135,36.7273653" id="Fill-27"></path>
                    <path d="M309.734603,64.5696424 C311.224299,65.2823017 311.495358,65.7532667 311.331593,67.1977853 C311.245757,67.9511035 310.978087,68.6524686 310.692345,69.3470573 C310.505992,69.7999517 310.180721,70.1161872 309.680392,70.022446 C309.234274,69.9388695 308.879638,69.6576457 308.822038,69.1448925 C308.679732,67.8743034 308.666179,66.6206555 309.305427,65.4517136 C309.449991,65.187431 309.569709,64.910725 309.734603,64.5696424" id="Fill-28"></path>
                    <path d="M258.015417,90.8330008 C257.954428,91.1063187 257.830193,91.6202013 257.721769,92.1374723 C257.583981,92.8015668 257.312922,93.3380378 256.515557,93.2657554 C255.724968,93.193473 255.06765,92.9258022 254.859838,92.0256604 C254.519885,90.5483889 255.496827,89.1129056 256.960545,88.9830231 C257.72064,88.9152584 258.10464,89.4867411 258.015417,90.8330008" id="Fill-29"></path>
                    <path d="M256.352921,20.4107428 C256.381157,20.0978956 256.399227,19.7455189 256.450051,19.3965304 C256.491839,19.1074008 256.697392,18.8239182 256.968451,18.910883 C257.794052,19.1762949 258.611746,19.5331893 259.235182,20.1385544 C259.714053,20.6004841 259.684688,21.2657081 259.46897,21.8846261 C259.205817,22.6424619 258.726946,23.3314036 257.899087,23.2715447 C257.038475,23.209427 256.56638,22.4854736 256.415039,21.6418024 C256.346145,21.2532845 256.372121,20.8489549 256.352921,20.4107428" id="Fill-30"></path>
                    <path d="M277.131853,28.4194069 C278.134771,28.4126304 278.827101,29.0609132 278.830489,30.0107491 C278.835007,31.0904675 277.777877,32.1701858 276.741076,32.1453388 C275.888369,32.1250093 275.070675,31.3332912 275.096651,30.5539965 C275.127145,29.6922548 276.334487,28.425054 277.131853,28.4194069" id="Fill-31"></path>
                    <path d="M268.195941,19.5139893 C268.40827,20.5157782 267.511517,21.3323434 267.06314,22.305897 C266.792081,22.8931915 265.664927,22.5826031 265.223327,21.8225084 C264.720739,20.9562491 265.161209,20.1972839 265.585869,19.4801069 C265.983422,18.8092359 266.375328,18.1022237 267.397446,18.2818002 C268.026529,18.3936121 268.400365,18.5923887 268.195941,19.5139893" id="Fill-32"></path>
                    <path d="M270.651284,38.5536253 C270.643378,38.0397426 270.354248,37.2186597 271.284884,36.5432711 C271.790861,36.1773414 272.213261,36.0960237 272.712461,36.162659 C273.271521,36.2383297 273.518862,36.7172006 273.567427,37.2175303 C273.622768,37.7856248 273.639709,38.3796958 273.535803,38.9376256 C273.36978,39.8208262 272.826532,40.1167322 271.902673,39.9450615 C271.775049,39.9213439 271.651943,39.8400262 271.525449,39.8377673 C270.554154,39.8219556 270.554154,39.8264732 270.651284,38.5536253" id="Fill-33"></path>
                    <path d="M251.542753,33.0307982 C251.51113,32.3542801 251.625201,31.7127738 251.881577,31.0803028 C252.142471,30.4342788 252.619084,30.1937139 253.250425,30.3077846 C253.826426,30.4116906 253.99019,30.8860438 253.996967,31.4134795 C254.01052,32.5733861 253.89419,33.7027986 253.274143,34.7271757 C253.104731,35.0095289 253.129578,35.4883998 252.620213,35.4104703 C252.154895,35.3393173 251.798001,35.0795525 251.633106,34.6164933 C251.449012,34.098093 251.569859,33.5582338 251.542753,33.0307982" id="Fill-35"></path>
                    <path d="M285.804611,62.3537351 C286.455153,62.1696408 287.109083,61.9460172 287.592471,62.6756176 C288.022777,63.3261592 288.009224,63.9518538 287.692989,64.6735484 C287.293177,65.5849843 286.281223,65.9317139 285.53807,65.2698782 C284.767811,64.5854542 284.539669,63.6254536 284.367999,62.6609353 C284.296846,62.2611232 284.532893,62.0702525 284.908987,62.1188173 C285.212799,62.1583467 285.506446,62.2724174 285.804611,62.3537351" id="Fill-38"></path>
                    <path d="M258.274052,34.4583756 C258.447982,34.1161636 258.260499,33.4690102 258.767605,33.2702336 C259.159511,33.1166335 259.610147,33.3379984 259.937677,33.6960221 C260.236971,34.0224223 260.635654,34.2257166 261.00836,34.4640226 C261.742478,34.9338582 261.861066,36.1265178 261.287325,36.7906124 C260.826524,37.3225657 259.972688,37.2502833 259.2973,36.6245888 C258.691935,36.0610119 258.327134,35.3788468 258.274052,34.4583756" id="Fill-40"></path>
                    <path d="M354.837692,16.4871638 C354.792515,16.5786462 354.747339,16.7627404 354.634398,16.8858464 C353.929644,17.6549763 353.659715,18.4568592 354.024515,19.5275422 C354.247009,20.1792133 353.562585,20.0482014 353.256514,19.9307425 C352.443337,19.6190246 352.138396,18.6353064 351.225831,18.3540826 C350.952513,18.2705061 351.003336,17.6470704 351.389595,17.3398702 C352.07289,16.7966228 352.873644,16.432952 353.555809,15.8682457 C354.070821,15.4424572 354.862539,15.8501751 354.837692,16.4871638" id="Fill-42"></path>
                    <path d="M238.93738,26.8269353 C238.888816,28.063642 238.234886,29.0970544 237.507544,29.3376193 C236.604014,29.6369136 235.963637,29.1546544 235.421519,28.5481599 C234.926837,27.9947478 235.087213,27.5339475 235.813425,27.3939003 C236.339732,27.2922532 236.702273,27.1205825 236.821991,26.5389351 C236.983497,25.7607699 237.609191,25.7991699 238.186321,25.9030758 C238.848157,26.0216641 238.945286,26.5490998 238.93738,26.8269353" id="Fill-43"></path>
                    <path d="M354.45595,69.0771277 C354.505645,67.5072443 355.700563,66.4693142 356.923717,66.8804204 C357.564094,67.0961382 357.826117,67.5750091 357.636376,68.0821153 C357.323529,68.91901 356.915811,69.7784929 356.025834,70.1918579 C355.10988,70.616517 354.422068,70.1094108 354.45595,69.0771277" id="Fill-46"></path>
                    <path d="M221.263204,101.801855 C221.294828,100.647596 222.511205,99.7948891 223.502829,100.067077 C223.908288,100.178889 224.140947,100.428489 224.083347,100.820396 C223.976053,101.548867 223.902641,102.333808 223.431676,102.904162 C223.228382,103.149244 223.256617,103.73315 222.531534,103.628115 C221.845981,103.528727 221.683346,103.126656 221.436004,102.685056 C221.255298,102.364303 221.248522,102.010796 221.263204,101.801855" id="Fill-49"></path>
                    <path d="M280.730161,16.5718697 C280.670302,17.5815645 279.799525,18.7855182 279.081219,18.768577 C278.274818,18.749377 277.753029,17.9802471 277.819665,16.9129523 C277.885171,15.8863163 278.638489,15.3724336 279.88649,15.4413278 C280.594631,15.4808572 280.792279,15.8592104 280.730161,16.5718697" id="Fill-50"></path>
                    <path d="M338.957023,23.8238274 C338.994293,23.1506976 340.548365,21.6711672 341.210201,21.6892378 C341.831377,21.706179 342.026766,22.2076381 342.141966,22.6594031 C342.366719,23.5471213 341.191001,25.0345576 340.271659,25.10684 C339.495752,25.1689577 338.915234,24.6019926 338.957023,23.8238274" id="Fill-51"></path>
                    <path d="M279.327431,41.9734864 C279.379383,41.7769686 279.439242,41.378286 279.592842,41.0202622 C279.957643,40.1754617 281.059949,39.7688732 281.781644,40.1777205 C282.419762,40.5391325 282.478491,41.2280741 281.930726,42.133863 C281.63595,42.6206398 281.356985,43.1062871 280.706443,43.2406872 C279.862772,43.4146167 279.333078,43.0340047 279.327431,41.9734864" id="Fill-52"></path>
                    <path d="M264.912739,54.0582002 C264.384174,53.9972119 263.822856,53.9633296 263.417397,53.5940117 C263.10342,53.3071409 262.717161,52.8711877 263.464832,52.614811 C263.835279,52.4883168 263.85222,52.2161284 263.974197,51.9315165 C264.320927,51.1217277 265.16008,50.8032334 265.928081,51.1352806 C266.552646,51.4063396 266.671234,52.086246 266.246575,52.9717054 C265.863704,53.7724588 265.512457,54.0582002 264.912739,54.0582002" id="Fill-53"></path>
                    <path d="M275.302204,49.7777268 C274.338815,49.742715 273.915286,49.3372559 273.865592,48.4190436 C273.832839,47.8249726 273.920933,47.3573958 274.687804,47.3777252 C274.94531,47.3845017 275.205075,47.2749487 275.46484,47.2173487 C276.116511,47.0739133 276.824652,46.813019 277.056182,47.7888314 C277.227853,48.516173 276.528746,49.5936326 275.82964,49.7302915 C275.65684,49.7630444 275.478393,49.7630444 275.302204,49.7777268" id="Fill-55"></path>
                    <path d="M333.504219,41.8255334 C333.490666,42.410569 333.48389,42.7618163 333.474854,43.1130636 C333.461301,43.5670874 333.27156,43.8618641 332.781395,43.9059112 C332.342054,43.94657 332.026947,43.8132994 331.8485,43.3716991 C331.414806,42.2987572 331.605677,41.2020976 331.742336,40.1189911 C331.793159,39.7078849 332.213301,39.6310849 332.584877,39.694332 C332.96323,39.7587085 333.38789,39.7745202 333.399184,40.3493912 C333.410478,40.9186151 333.478243,41.487839 333.504219,41.8255334" id="Fill-56"></path>
                    <path d="M160.759447,63.2007944 C160.730082,62.857453 160.683776,62.4644175 160.666835,62.0702525 C160.646506,61.573311 160.800106,61.1520402 161.38853,61.2051226 C161.891118,61.2491696 162.42646,61.4897345 162.285283,62.0917114 C162.07973,62.9602296 162.381283,63.7372654 162.556342,64.5278541 C162.749472,65.3986312 162.177989,65.671949 161.605377,65.8221609 C160.840764,66.0220669 160.763964,65.3703959 160.732341,64.8361838 C160.699588,64.3110069 160.745894,63.7813125 160.759447,63.2007944" id="Fill-58"></path>
                    <path d="M301.57008,15.406316 C301.598316,14.9432569 301.693186,14.5682919 301.958598,14.2441505 C302.373093,13.7381737 302.788717,12.9713026 303.508152,13.314644 C304.198223,13.6421737 304.167729,14.4914919 304.043494,15.2075394 C303.9554,15.7169044 303.55107,16.096387 303.387305,16.5967168 C303.340999,16.7378933 302.702881,17.0349288 302.209328,16.8158228 C301.507963,16.504105 301.711257,15.8659869 301.57008,15.406316" id="Fill-61"></path>
                    <path d="M365.504993,118.355654 C365.772664,118.22916 365.666499,117.980689 365.690217,117.780783 C365.74104,117.351606 366.051629,117.326759 366.37577,117.334665 C366.638923,117.340312 366.903206,117.345959 367.04777,117.645254 C367.243159,118.046195 366.769935,119.591231 366.291064,119.950385 C365.616805,120.454103 365.024993,120.101726 364.479486,119.68949 C363.793933,119.17109 363.85831,118.461819 364.080804,117.752548 C364.22311,117.300783 364.556286,117.470195 364.843157,117.592171 C365.18424,117.737866 365.078075,118.277725 365.504993,118.355654" id="Fill-65"></path>
                    <path d="M280.892796,79.3988286 C280.916514,78.5224045 281.593032,77.93511 282.57788,77.9362394 C283.236327,77.9362394 283.650822,78.4941692 283.605645,79.3175109 C283.55708,80.207488 282.894115,80.9811355 282.202915,80.9529002 C281.508326,80.9257943 280.872467,80.1713468 280.892796,79.3988286" id="Fill-66"></path>
                    <path d="M310.810934,32.929151 C310.762369,33.4351278 310.862887,33.9433635 310.533098,34.2573401 C310.14571,34.6277874 309.602462,34.7859052 309.071638,34.5939051 C308.571309,34.4143285 308.311544,33.9998341 308.374791,33.4531984 C308.409803,33.1527747 308.459497,32.8342804 308.591638,32.5699979 C308.945144,31.8629856 309.521144,31.245197 310.324157,31.4191265 C311.142981,31.5975737 310.66411,32.4559272 310.810934,32.929151" id="Fill-67"></path>
                    <path d="M326.093014,54.4489769 C326.06252,53.6448352 326.553814,53.4889763 327.211133,53.5669058 C327.848121,53.6425764 328.612733,53.5691646 328.586757,54.5607888 C328.551745,55.9318956 328.198239,56.603896 327.514945,56.6242254 C326.701768,56.6490725 326.08172,55.7014954 326.093014,54.4489769" id="Fill-68"></path>
                    <path d="M267.118481,27.6627005 C267.122999,26.5671704 267.665117,25.7867463 268.424082,25.8669346 C269.075753,25.9346994 269.616742,26.210276 269.633683,26.9974766 C269.655142,27.9676419 268.869071,29.0541367 268.142858,29.0586544 C267.470858,29.0620426 267.113964,28.5763952 267.118481,27.6627005" id="Fill-69"></path>
                    <path d="M183.141014,20.53159 C183.26525,20.0222249 183.387226,19.3728127 183.589391,18.7482476 C183.733956,18.3032591 184.080686,17.9531412 184.588921,18.0728589 C185.048592,18.1835414 185.323039,18.5314004 185.265439,19.0610949 C185.180733,19.8313542 185.408875,20.6546959 184.777533,21.3244375 C184.427415,21.6960142 184.038897,21.8112143 183.59165,21.6576142 C183.13085,21.4983671 183.106003,21.0827433 183.141014,20.53159" id="Fill-70"></path>
                    <path d="M291.342121,43.0916048 C291.337603,44.0809701 290.884709,44.5620999 289.980049,44.540641 C289.129602,44.5191822 288.716237,43.998523 288.720754,42.952687 C288.724143,42.1643571 289.219955,41.7385686 290.098638,41.7690627 C291.021368,41.8006863 291.346638,42.1462865 291.342121,43.0916048" id="Fill-71"></path>
                    <path d="M285.290729,37.1825185 C285.272658,38.2622369 284.544187,39.3961671 283.913975,39.3317905 C283.195668,39.2595081 282.82635,38.9026138 282.882821,38.112025 C282.96188,37.0097184 283.535622,36.2213885 284.340893,36.2552709 C284.956422,36.2812474 285.355105,36.5308475 285.290729,37.1825185" id="Fill-75"></path>
                    <path d="M350.042206,48.1807375 C350.043336,47.593443 350.723242,46.941772 351.317313,46.9621014 C351.929455,46.9835603 352.506584,47.7899608 352.51562,48.6381496 C352.523526,49.3496795 351.973502,50.0115152 351.376043,50.008127 C350.620466,50.0036093 350.042206,49.2118911 350.042206,48.1807375" id="Fill-77"></path>
                    <path d="M292.141745,30.7855261 C292.147392,30.5043024 292.129321,30.3247258 292.159815,30.1530551 C292.302121,29.347784 292.974122,29.0914073 293.608852,29.0462308 C294.372335,28.992019 294.030123,29.7543725 294.18824,30.1496669 C294.235676,30.2682552 294.230029,30.4105611 294.231158,30.541573 C294.240193,31.5535266 293.536569,32.5779037 292.799063,32.4288213 C291.815345,32.2300447 292.356333,31.2734323 292.141745,30.7855261" id="Fill-80"></path>
                    <path d="M285.256846,26.9059941 C285.353976,26.4451938 285.108893,25.8454758 285.775247,25.6749345 C286.367059,25.5247226 286.728471,26.0182759 286.912565,26.3898526 C287.157647,26.8867941 288.119907,27.236912 287.320283,28.0952655 C286.983718,28.4578069 286.809788,28.9378072 286.233788,28.8158307 C285.718776,28.7074071 285.429646,28.2929127 285.30654,27.8072653 C285.233129,27.5147475 285.26927,27.1951237 285.256846,26.9059941" id="Fill-82"></path>
                    <path d="M283.741175,52.4442697 C284.391716,52.4792815 284.947387,53.1173996 284.912375,53.7871412 C284.878493,54.4320357 284.218916,55.0249773 283.548045,54.9052596 C282.876045,54.7855419 282.249221,54.5269064 282.30795,53.6380588 C282.358774,52.8406935 282.882821,52.3979638 283.741175,52.4442697" id="Fill-85"></path>
                    <path d="M344.424509,37.9550367 C344.493403,38.6225195 344.128602,39.2244963 343.40352,39.6107554 C343.064696,39.790332 342.715707,39.7824261 342.434484,39.5012024 C342.180366,39.2470846 341.984978,38.9308491 342.171331,38.5604018 C342.406248,38.0916956 342.685213,37.6455777 342.940461,37.1881656 C343.202484,36.7149418 343.583096,36.6765417 344.058579,36.8324007 C344.590532,37.0074596 344.512603,37.3925893 344.424509,37.9550367" id="Fill-88"></path>
                    <path d="M234.034601,88.1483873 C234.808248,88.2071168 235.494931,88.087399 235.457661,88.971729 C235.427166,89.6956824 234.61286,90.5901771 234.045895,90.50773 C233.3434,90.4049535 232.981988,89.9644826 232.9978,89.2134233 C233.015871,88.3573286 233.367118,87.9620342 234.034601,88.1483873" id="Fill-93"></path>
                    <path d="M365.467722,36.989389 C366.393841,37.0673185 367.172006,37.6625189 366.9721,38.267884 C366.815112,38.7456254 366.888523,39.5915554 365.97144,39.5463789 C365.326546,39.5147554 364.450122,38.3266134 364.558545,37.6105659 C364.639863,37.0650596 364.967393,36.8696713 365.467722,36.989389" id="Fill-95"></path>
                    <path d="M324.331131,66.3484671 C324.315319,67.15035 323.531507,68.0437153 322.932918,68.0007976 C322.227035,67.9511035 321.9492,67.4936914 321.931129,66.8307262 C321.919835,66.446726 322.012447,66.1225846 322.415647,65.9802786 C322.620071,65.9068668 322.935177,65.9204198 323.023271,65.781502 C323.262706,65.4087959 323.637671,65.0236662 323.942613,65.291337 C324.166236,65.4867254 324.124448,66.0785375 324.331131,66.3484671" id="Fill-96"></path>
                    <path d="M200.040414,127.671049 C200.064131,126.347377 200.485402,125.754436 201.283897,125.779283 C201.793262,125.795094 202.050768,125.927236 201.826015,126.499848 C201.599003,127.073589 201.399097,127.655237 201.397968,128.292225 C201.396838,128.642343 201.341497,129.048932 200.878438,129.092979 C200.380367,129.140414 200.174814,128.798202 200.107049,128.362249 C200.06752,128.100225 200.055096,127.833684 200.040414,127.671049" id="Fill-97"></path>
                    <path d="M325.047178,115.358193 C324.840496,115.96017 324.685766,116.616359 323.885013,116.608453 C323.359836,116.602806 322.644918,115.715088 322.67993,115.198946 C322.704777,114.834146 323.767554,113.926098 324.143648,113.978051 C324.973766,114.089863 325.015555,114.725722 325.047178,115.358193" id="Fill-99"></path>
                    <path d="M299.545044,90.6251889 C299.468244,91.011448 299.404997,91.4010953 299.312385,91.7839662 C299.192667,92.2831665 298.830126,92.5440608 298.348996,92.476296 C297.86109,92.4074019 297.43756,92.1521546 297.279442,91.6213308 C297.211678,91.3931894 297.228619,91.0803422 297.449984,91.0667892 C298.204431,91.0182245 298.34109,90.5619418 298.369325,89.9396355 C298.382878,89.6392118 298.621184,89.4517293 298.924996,89.5759647 C299.374503,89.7611884 299.604903,90.1146945 299.545044,90.6251889" id="Fill-101"></path>
                    <path d="M260.092406,72.6246124 C259.484782,72.6257418 259.081582,72.0361885 259.391041,71.5098823 C259.685818,71.0118113 259.799888,70.5939287 259.595465,70.0314813 C259.37297,69.4238574 259.986241,69.2792926 260.3341,69.1494101 C260.881865,68.943857 260.775701,69.5017868 260.897677,69.7920458 C261.215042,70.5442346 260.967701,71.2625409 260.803936,71.9898826 C260.712454,72.3976005 260.387183,72.5150594 260.092406,72.6246124" id="Fill-102"></path>
                    <path d="M174.88275,46.56116 C174.360962,46.4391834 174.30675,45.8823831 174.395973,45.4690181 C174.523597,44.8772059 174.947127,44.3847821 175.378562,43.9488289 C175.607833,43.7172993 175.962469,43.6337228 176.217716,43.8324994 C176.441339,44.0052995 176.63334,44.3034644 176.695457,44.579041 C176.80614,45.063559 175.500539,46.5306659 174.88275,46.56116" id="Fill-104"></path>
                    <path d="M326.861015,14.9364804 C326.940074,14.4158212 326.911838,13.6794443 327.669674,13.8624091 C328.245674,14.0013268 329.010287,14.2848094 328.959463,15.1409041 C328.917675,15.825328 328.491886,16.3945519 327.815368,16.3968108 C326.914097,16.400199 326.905062,15.6084808 326.861015,14.9364804" id="Fill-105"></path>
                    <path d="M301.768857,30.960585 C301.458269,30.8894321 300.990692,30.7335731 300.868715,30.3077846 C300.741092,29.8661843 301.122833,29.5499488 301.536198,29.50929 C302.096387,29.4539488 302.335822,29.0292897 302.688199,28.7198306 C302.848575,28.5786541 302.940058,28.1393126 303.265329,28.4657128 C303.464105,28.6644894 303.844717,28.7040189 303.834552,29.1185132 C303.814223,29.8831255 302.692716,30.9707498 301.768857,30.960585" id="Fill-106"></path>
                    <path d="M318.009809,45.7253947 C317.286985,45.6610182 316.863455,45.4136769 316.889432,44.6603587 C316.918796,43.8042641 317.478985,43.5320756 318.18035,43.4575344 C318.77668,43.3942873 319.078233,43.7037464 319.020633,44.3305703 C318.957386,45.030806 318.763127,45.6135829 318.009809,45.7253947" id="Fill-108"></path>
                    <path d="M286.252988,172.976302 C286.250729,173.511643 286.100517,173.928397 285.848658,174.288679 C285.57534,174.680585 285.140517,174.872585 284.703434,174.657997 C284.296846,174.458091 284.494493,174.044726 284.580328,173.714938 C284.667293,173.379502 284.777975,173.047455 284.896564,172.721055 C285.055811,172.280584 285.145034,171.681995 285.80687,171.841242 C286.467576,171.99936 286.204423,172.611502 286.252988,172.976302" id="Fill-109"></path>
                    <path d="M227.544997,116.2493 C226.901231,116.212029 226.188572,115.101817 226.397513,114.534852 C226.488996,114.286381 226.685514,114.217487 226.919302,114.224263 C227.412855,114.237816 227.448996,114.718946 227.689561,114.992264 C227.899632,114.609393 228.185373,114.36544 228.641656,114.564216 C229.28768,114.84544 229.193939,115.303982 228.831397,115.728641 C228.497091,116.121676 227.969656,116.136359 227.544997,116.2493" id="Fill-110"></path>
                    <path d="M356.135387,90.9933774 C356.496799,90.4218947 356.787058,89.6742236 357.463576,89.2055174 C357.599105,89.1117762 357.777553,89.0982232 357.957129,89.2134233 C358.391953,89.4935176 358.294824,90.5258006 357.804659,91.4202953 C357.428564,92.1069781 356.947434,91.8788368 356.459528,91.6529543 C356.258493,91.5592131 356.133128,91.3604365 356.135387,90.9933774" id="Fill-111"></path>
                    <path d="M281.52075,123.999328 C281.477832,124.683752 281.381832,125.362529 280.575431,125.382859 C280.046866,125.396412 279.715948,124.969494 279.720466,124.401399 C279.724984,123.676317 280.368749,122.932034 280.989926,122.952363 C281.818915,122.97834 281.414585,123.637916 281.52075,123.999328" id="Fill-115"></path>
                    <path d="M288.778354,18.0751178 C287.803671,18.0186471 287.493083,17.5002468 287.609412,16.8948817 C287.704283,16.4024578 287.824001,15.6751162 288.643954,15.7699868 C289.126213,15.8264575 289.72819,15.890834 289.491014,16.6125286 C289.310308,17.1580348 289.541837,18.0310707 288.778354,18.0751178" id="Fill-116"></path>
                    <path d="M304.614977,151.222688 C304.66693,150.66024 304.663541,150.080852 305.340059,150.088757 C305.91493,150.095534 306.167919,150.54504 306.198413,151.084899 C306.215354,151.392099 306.191636,151.707206 306.143072,152.011017 C306.073048,152.457135 305.796342,152.714641 305.337801,152.75643 C304.703071,152.81403 304.809235,152.283206 304.709847,151.939864 C304.637565,151.689135 304.638694,151.416947 304.614977,151.222688" id="Fill-117"></path>
                    <path d="M275.847711,42.8668517 C275.743805,43.579511 275.380134,44.2131114 274.661827,44.198429 C274.076792,44.1860055 273.905121,43.560311 274.018062,42.9730165 C274.142298,42.3269925 274.380604,41.7668039 275.179098,41.8221451 C275.834158,41.868451 275.907569,42.3371572 275.847711,42.8668517" id="Fill-118"></path>
                    <path d="M243.670748,55.5332129 C244.252396,55.4541541 244.509902,55.661966 244.441008,56.184884 C244.366466,56.7574961 244.30096,57.3662494 243.534089,57.4261083 C242.967124,57.469026 242.1483,56.7044137 242.235265,56.1690722 C242.388865,55.2079421 243.269807,55.8178249 243.670748,55.5332129" id="Fill-137"></path>
                    <path d="M197.841448,73.9177897 C197.76013,73.9087544 197.448412,73.8997191 197.153635,73.8263073 C196.876929,73.7574131 196.705259,73.5416954 196.680412,73.2503069 C196.654435,72.9510126 196.930012,72.9239067 197.111847,72.8279067 C197.345635,72.7059301 197.618953,72.6449418 197.824506,72.4913417 C198.198342,72.210118 198.665919,71.9503531 199.020554,72.2214121 C199.369543,72.4890829 199.270154,73.0492715 199.168507,73.4795777 C199.018295,74.1222134 198.479566,73.8669662 197.841448,73.9177897" id="Fill-138"></path>
                    <path d="M332.255089,95.490698 C331.692641,95.2693332 331.209253,94.9892389 331.197959,94.2946502 C331.193441,94.0145559 332.443701,93.3877319 332.896595,93.4554967 C333.48389,93.5435908 333.36869,94.0348853 333.344972,94.3895208 C333.302054,95.0355448 332.930477,95.4274509 332.255089,95.490698" id="Fill-139"></path>
                    <path d="M198.816131,37.2367303 C199.749025,37.0594126 200.371332,36.9012948 201.003803,36.8346595 C201.429591,36.789483 201.783097,36.989389 201.81698,37.4885893 C201.849733,37.9764955 201.691615,38.3243546 201.149497,38.4508488 C200.136414,38.6857666 199.674484,37.9155073 198.816131,37.2367303" id="Fill-142"></path>
                    <path d="M338.027516,31.2248676 C338.071563,30.5427024 338.474763,30.0931962 339.09594,30.1078786 C339.688882,30.1214315 339.834576,30.6262789 339.670811,31.1853381 C339.512694,31.7251973 339.709211,32.5666096 338.726622,32.4265625 C338.054622,32.3316918 337.978951,31.7850562 338.027516,31.2248676" id="Fill-143"></path>
                    <path d="M316.710984,19.285848 C316.788914,18.9560595 316.982043,18.7177535 317.328773,18.6951652 C317.820068,18.6624123 318.261668,18.7256594 318.592586,19.2022714 C318.994657,19.7816601 318.272962,20.2718251 318.539503,20.8139431 C318.426562,20.8681549 318.31475,20.9607667 318.19955,20.9675432 C317.970279,20.9822255 316.70082,19.5207658 316.710984,19.285848" id="Fill-147"></path>
                    <path d="M294.550782,65.4822077 C294.553041,64.7593837 294.799252,64.5086541 295.362829,64.4860659 C296.021277,64.45896 295.925277,64.9333132 295.950124,65.2969841 C295.982877,65.7769844 295.798783,66.2298788 295.26457,66.2366553 C294.717935,66.2423023 294.559817,65.7882785 294.550782,65.4822077" id="Fill-153"></path>
                    <path d="M206.002582,21.3052375 C205.445782,21.112108 205.155523,20.58919 205.078723,19.9714014 C205.031288,19.5964364 205.368982,19.4371892 205.702159,19.5151187 C206.383194,19.6732365 206.493877,20.2345545 206.516465,20.821849 C206.527759,21.0951668 206.495006,21.3617081 206.002582,21.3052375" id="Fill-155"></path>
                    <path d="M241.775594,170.736677 C241.793665,170.039829 241.886277,169.679547 242.440818,169.707782 C242.872254,169.729241 243.081195,169.964159 243.074418,170.379782 C243.066513,170.885759 242.720912,171.05743 242.289477,171.078889 C241.885147,171.099218 241.776723,170.821383 241.775594,170.736677" id="Fill-157"></path>
                    <path d="M235.41926,41.8797452 C235.389896,42.3123101 235.180954,42.5110867 234.891825,42.4083102 C234.368907,42.2230866 233.727401,42.0660982 233.69013,41.3726389 C233.67093,41.0270387 234.070742,41.0643093 234.316954,41.1241682 C234.802601,41.2416271 235.442978,41.19758 235.41926,41.8797452" id="Fill-160"></path>
                    <path d="M206.639571,17.2246701 C206.656512,18.4444356 206.654253,19.329895 206.310912,20.175825 C206.178771,20.5033546 206.1223,20.9257549 205.723617,20.9957785 C205.178111,21.0917786 205.171335,21.440767 205.131805,21.8620379 C205.090017,22.3070264 204.959005,22.7418502 204.418017,22.8570503 C203.788934,22.990321 203.454628,22.4628853 203.287475,22.1093792 C202.330862,20.0809544 201.91298,17.9813765 203.092086,15.8863163 C203.395898,15.3464571 203.709875,14.8224097 203.956087,14.250927 C204.43157,13.1418439 205.178111,13.0944086 205.925782,14.0092327 C206.802206,15.083304 206.586489,16.3392107 206.639571,17.2246701" id="Fill-165"></path>
                    <path d="M166.449427,25.6365345 C166.458462,25.5224638 166.475403,25.1249106 166.530745,24.7307457 C166.691121,23.5832625 167.070604,23.1823211 167.94364,23.2082976 C169.376864,23.2512153 170.1539,23.861098 170.241994,24.9871223 C170.370747,26.6315469 170.116629,28.2149832 169.638888,29.7882549 C169.463829,30.3631258 169.176958,30.7810085 168.642746,30.9041144 C168.079169,31.0339969 167.652251,30.6307966 167.286322,30.2400199 C166.488956,29.3918311 166.653851,28.2545127 166.429098,27.2380414 C166.336486,26.8201588 166.432486,26.3604879 166.449427,25.6365345" id="Fill-167"></path>
                    <path d="M137.738632,47.5268077 C137.757832,46.451607 138.006302,45.7886418 138.852232,45.644077 C139.566021,45.5232299 140.401786,45.2883121 140.68301,46.3646422 C140.742869,46.5950424 140.922445,46.7588072 141.134775,46.8197955 C142.460705,47.1981486 142.281129,48.2485023 142.147858,49.2028558 C142.005552,50.227233 141.348234,51.0539629 140.838869,51.9213517 C140.544092,52.4239403 139.954539,52.5142933 139.412421,52.4115168 C138.795762,52.2940579 138.336091,51.8524576 138.26042,51.259516 C138.085361,49.9155151 138.089879,48.5500554 137.738632,47.5268077" id="Fill-168"></path>
                    <path d="M100.96609,196.198152 C100.986419,195.122952 101.23489,194.458857 102.08082,194.315422 C102.794609,194.193445 103.630374,193.959657 103.910468,195.035987 C103.971457,195.266387 104.151033,195.430152 104.363363,195.490011 C105.689293,195.869493 105.508587,196.918718 105.376446,197.874201 C105.23414,198.898578 104.576822,199.725308 104.067457,200.592696 C103.77268,201.095285 103.183127,201.185638 102.639879,201.082861 C102.024349,200.965403 101.564678,200.523802 101.487878,199.929731 C101.313949,198.58686 101.318467,197.2214 100.96609,196.198152" id="Fill-169"></path>
                    <path d="M228.914974,22.1014733 C228.965797,21.4046258 229.059539,20.7608607 229.370127,20.2435898 C230.251069,18.7764829 231.878552,18.7968123 232.907447,20.2334251 C234.158836,21.9806262 233.609942,24.0802041 231.649282,25.0424635 C230.635069,25.5405344 229.600527,25.1215224 229.245892,23.9887216 C229.049374,23.3618977 229.013233,22.6853796 228.914974,22.1014733" id="Fill-170"></path>
                    <path d="M76.5267326,34.692164 C76.1032029,33.2182806 77.2484272,32.2074564 78.2648985,31.5670796 C78.652287,31.321997 79.0272519,31.3818559 79.3400992,31.7139032 C79.7331347,32.1317858 80.1668291,32.5530567 80.2526645,33.1414806 C80.4446646,34.4617638 80.445794,35.7831764 79.9307819,37.0481184 C79.6890876,37.6388012 79.3446168,38.1368721 78.605981,38.1741427 C77.8345923,38.2136722 77.4155803,37.8082131 77.0598153,37.1655774 C76.612568,36.3580474 76.4770385,35.5177645 76.5267326,34.692164" id="Fill-171"></path>
                    <path d="M190.62789,99.8524891 C190.135466,100.064819 190.189678,100.588866 189.787607,100.824913 C189.286148,100.098701 189.277113,99.4052418 189.672407,98.6214295 C190.203231,97.5676876 190.488972,96.3976163 191.411702,95.542651 C191.943655,95.0490977 192.480126,94.7001093 193.172456,94.9892389 C193.853492,95.2761096 193.757492,95.8566277 193.756363,96.5320163 C193.755233,97.5507464 194.193445,98.5163941 193.671657,99.5927242 C192.981586,101.011266 192.144691,101.251831 190.959937,100.146136 C190.866196,100.058042 190.765678,99.9744657 190.62789,99.8524891" id="Fill-172"></path>
                    <path d="M93.2849554,44.1171113 C93.2985083,45.1584297 92.8252845,45.986289 92.4932372,46.8389955 C92.2278253,47.5177724 91.7252367,47.5042194 91.2011893,46.884172 C90.7245772,46.3183363 90.3134711,45.7468536 89.5838706,45.3899592 C88.881376,45.0466178 88.6713053,44.2481232 88.7221289,43.437205 C88.7503642,42.9967341 88.8633054,42.6646868 89.365894,42.585628 C89.5770941,42.552875 89.8797767,42.5212515 89.9667414,42.3812043 C90.4625535,41.5849685 91.1243893,41.4324978 91.8822251,41.8921687 C92.728155,42.404922 93.5447203,42.9876988 93.2849554,44.1171113" id="Fill-174"></path>
                    <path d="M71.1191055,13.2943146 C70.9463054,13.993421 70.9575995,14.9918216 70.1173166,15.6886691 C69.5943986,16.1234929 69.0974571,16.1325282 68.5598568,15.781281 C67.1627735,14.8675862 66.8239498,11.8757725 67.9759505,10.6627835 C68.4333626,10.1805243 69.4227279,10.1760067 70.0258342,10.6492305 C70.8096465,11.2636309 71.1992938,12.0598667 71.1191055,13.2943146" id="Fill-175"></path>
                    <path d="M73.3124246,14.0871622 C73.49426,13.3564323 73.6218836,12.657326 73.8477661,11.992102 C74.055578,11.378831 74.624802,11.3167133 75.0618846,11.9186902 C75.3690848,12.3422199 75.4978378,12.6799142 76.1517677,12.411114 C76.6080503,12.2225021 76.9570388,12.6889495 77.1422624,13.1079616 C77.7193922,14.4033977 77.1275801,16.4769991 75.985744,17.2359643 C75.3487554,17.6583645 74.2012723,17.1478701 73.7495073,16.2398224 C73.5959072,15.9314928 73.2988717,14.4282448 73.3124246,14.0871622" id="Fill-176"></path>
                    <path d="M154.746455,26.7772411 C154.831161,26.2735231 154.866172,25.8725817 154.967819,25.4897109 C155.324714,24.1389335 155.724526,23.9480628 157.084338,24.2767218 C157.433327,24.3614278 157.737139,24.5240632 158.072574,24.6223221 C159.290081,24.9792164 159.58034,25.7257581 158.912857,26.8145117 C158.637281,27.2640179 158.305233,27.6796417 157.998033,28.1110773 C157.539492,28.7548424 156.923962,29.3274546 156.137891,29.1320662 C155.320196,28.9299014 154.910219,28.1811009 154.817608,27.3193591 C154.79389,27.1025119 154.760008,26.8867941 154.746455,26.7772411" id="Fill-177"></path>
                    <path d="M92.708955,20.7653783 C91.8336603,20.7642489 91.1051892,19.9634955 91.025001,18.8770006 C90.9369068,17.6775646 91.5738954,16.7390228 92.3012371,15.9168105 C92.8806257,15.2594924 93.883544,15.5441043 94.2686737,16.3516343 C94.7904623,17.4437762 94.3974267,19.6585541 93.5582732,20.4739899 C93.308673,20.7156842 93.0229317,20.7597313 92.708955,20.7653783" id="Fill-179"></path>
                    <path d="M104.232351,8.25600542 C104.663786,8.18259361 104.907739,8.37346432 105.09861,8.72922926 C105.797717,10.0348301 105.32901,11.9322431 104.084398,12.7567143 C103.287033,13.2852793 101.971267,12.7250907 101.789432,11.7741254 C101.766843,11.6521488 101.75442,11.430784 101.807502,11.4059369 C102.721197,10.9778896 102.54275,10.0596772 102.708773,9.33120613 C102.910938,8.4434879 103.449668,8.19727597 104.232351,8.25600542" id="Fill-182"></path>
                    <path d="M115.319793,59.3833802 C115.334476,58.4911443 116.2877,57.9806498 117.90163,57.997591 C118.563466,58.0054969 119.201584,59.0072858 119.208361,60.0497336 C119.215137,61.0165107 118.191889,62.1786761 117.358383,62.1526996 C116.355465,62.1222055 115.297205,60.683334 115.319793,59.3833802" id="Fill-183"></path>
                    <path d="M152.651394,65.3941135 C152.414218,66.6037143 151.9873,67.7466798 151.15944,68.7100687 C150.764146,69.170869 150.249134,69.2375043 149.704757,69.0726101 C149.117463,68.8952923 148.890451,68.4446567 148.857698,67.8573622 C148.802357,66.8454086 149.358028,65.833455 150.292052,65.4076665 C150.627487,65.2540664 150.926781,65.1207957 151.091676,64.7706778 C151.326594,64.2692187 151.697041,63.9925126 152.262876,64.2161363 C152.828712,64.43976 152.6017,64.9570309 152.651394,65.3941135" id="Fill-184"></path>
                    <path d="M80.5146882,145.811672 C80.278641,147.022402 79.851723,148.165368 79.0238637,149.128757 C78.6285693,149.588428 78.1124278,149.656192 77.5680509,149.491298 C76.9818859,149.31398 76.7537445,148.863345 76.722121,148.27605 C76.6667798,147.264097 77.2224507,146.253273 78.1564749,145.826355 C78.4919104,145.672754 78.7912047,145.539484 78.9560989,145.189366 C79.1910167,144.687907 79.561464,144.411201 80.1261703,144.634824 C80.6920059,144.857319 80.4661234,145.375719 80.5146882,145.811672" id="Fill-185"></path>
                    <path d="M164.350979,77.9588277 C164.373567,76.5730385 164.573473,76.5922385 165.910697,76.7627798 C167.060439,76.908474 167.837475,77.1704977 168.152581,78.3654162 C168.342322,79.0837225 168.294887,79.7048994 167.704204,80.1679585 C167.139498,80.6106882 166.464109,80.6886177 165.821474,80.3543116 C164.844532,79.8472054 164.277567,79.0566166 164.350979,77.9588277" id="Fill-187"></path>
                    <path d="M104.58021,56.8455903 C104.55988,57.6960379 104.267363,58.4877561 103.995174,59.2715683 C103.711692,60.0858748 102.989997,60.2586749 102.342844,59.6499215 C101.62002,58.9688858 101.220208,58.0981087 101.168255,57.0850257 C101.142278,56.5824372 101.362514,56.2503899 101.809761,56.0414486 C102.255879,55.8325073 102.735879,55.7816837 103.212491,55.6947189 C104.400633,55.4778717 104.633292,55.6664836 104.58021,56.8455903" id="Fill-189"></path>
                    <path d="M126.645542,84.3806672 C126.61053,85.5304091 125.530812,86.8563394 124.64987,86.8326217 C123.927046,86.8134217 123.13194,85.7224092 123.159046,84.7906439 C123.201963,83.33709 124.002717,82.5657013 125.396412,82.633466 C126.351895,82.6797719 126.683942,83.1439605 126.645542,84.3806672" id="Fill-190"></path>
                    <path d="M224.264053,2.3119074 C224.242594,1.76301292 224.335206,1.24913023 224.713559,0.82447113 C225.157418,0.326400214 225.714219,0.230400151 226.275537,0.530823878 C226.92269,0.877553518 227.605985,2.77948418 227.402691,3.50456701 C227.185843,4.27821457 226.705843,4.67915601 225.868948,4.70400309 C225.061418,4.72885016 224.668383,4.36066169 224.445889,3.61524943 C224.314877,3.17816679 224.280994,2.75124887 224.264053,2.3119074" id="Fill-191"></path>
                    <path d="M235.11319,63.0020178 C235.141425,62.6496411 235.107543,62.2758056 235.213707,61.9471466 C235.431684,61.2728873 235.876673,60.8346752 236.645802,60.7906282 C237.433003,60.7454517 237.431874,61.4310051 237.577568,61.857923 C237.830556,62.6033352 237.93898,63.4007005 238.076768,64.1811245 C238.171639,64.7175954 237.946886,65.1151486 237.468015,65.3941135 C236.864909,65.7464902 236.337473,65.4923724 235.878931,65.1558075 C235.160625,64.6283719 235.052201,63.8343949 235.11319,63.0020178" id="Fill-192"></path>
                    <path d="M116.373535,35.2704232 C116.463888,33.4836926 116.869347,33.1211512 118.553301,33.4023749 C119.395843,33.542422 119.657867,34.0879283 119.508784,34.8288229 C119.354055,35.601341 119.047984,36.3320709 118.513772,36.937436 C118.115089,37.389201 117.610242,37.7212483 117.011653,37.5111776 C116.440171,37.3112716 116.350947,36.7431771 116.353206,36.1908944 C116.354335,35.9266118 116.3645,35.6645881 116.373535,35.2704232" id="Fill-193"></path>
                    <path d="M97.8579466,89.3760587 C97.7958289,89.6493765 97.6715936,90.1632592 97.5642994,90.6816596 C97.4253816,91.3457541 97.155452,91.8810956 96.3569574,91.8099427 C95.5663686,91.7376603 94.9090506,91.4699895 94.7012387,90.5698477 C94.3601561,89.0925762 95.3382273,87.6559635 96.8019459,87.526081 C97.56317,87.4583163 97.9460408,88.0309284 97.8579466,89.3760587" id="Fill-195"></path>
                    <path d="M96.194322,18.9538007 C96.2225573,18.6420828 96.2394985,18.2885767 96.2914515,17.9407177 C96.3332397,17.6515881 96.5387928,17.3669761 96.8098518,17.4550703 C97.6354524,17.7204822 98.453147,18.0773766 99.0777121,18.6827417 C99.5554536,19.1446714 99.5260889,19.8098954 99.3115005,20.427684 C99.0483474,21.1855198 98.5683471,21.8755908 97.7416171,21.815732 C96.8798754,21.7536143 96.407781,21.0296609 96.2564397,20.1859897 C96.1875455,19.7974718 96.213522,19.3931421 96.194322,18.9538007" id="Fill-196"></path>
                    <path d="M116.973253,26.9624648 C117.976172,26.9556883 118.668501,27.6051005 118.67189,28.5549364 C118.676407,29.6346548 117.619277,30.7143731 116.582477,30.689526 C115.72977,30.6691966 114.912075,29.876349 114.939181,29.0970544 C114.968546,28.2353127 116.175888,26.9681118 116.973253,26.9624648" id="Fill-197"></path>
                    <path d="M108.037342,18.0581766 C108.250801,19.058836 107.354047,19.8765307 106.904541,20.8489549 C106.634611,21.4362494 105.506328,21.1267903 105.064728,20.3666957 C104.562139,19.5004363 105.00261,18.7414711 105.427269,18.0231648 C105.824822,17.3534232 106.216729,16.6464109 107.238847,16.8259875 C107.8668,16.9366699 108.241765,17.136576 108.037342,18.0581766" id="Fill-198"></path>
                    <path d="M110.492684,37.0966832 C110.485908,36.5839299 110.195649,35.762847 111.126285,35.0874583 C111.632262,34.7215287 112.054662,34.640211 112.553862,34.7068463 C113.112921,34.782517 113.360263,35.2602585 113.408827,35.7617176 C113.463039,36.3298121 113.482239,36.9238831 113.377204,37.4806834 C113.21118,38.3650134 112.666803,38.6597901 111.744073,38.4881194 C111.61645,38.4644017 111.493344,38.3842134 111.36685,38.3819546 C110.395555,38.3661428 110.395555,38.3706605 110.492684,37.0966832" id="Fill-199"></path>
                    <path d="M106.034893,125.867377 C105.975034,125.333165 106.222376,125.027094 106.83,124.952553 C108.126565,124.793305 109.695319,125.935142 109.740496,127.102954 C109.782284,128.195096 109.145295,128.736085 108.085906,128.506814 C106.938423,128.258343 106.016823,127.098436 106.034893,125.867377" id="Fill-200"></path>
                    <path d="M91.3841541,31.573856 C91.35366,30.8984674 91.4666012,30.2558316 91.7229779,29.6233606 C91.9838722,28.9784661 92.4604843,28.7367718 93.0918258,28.8508425 C93.6678262,28.9558778 93.831591,29.4302311 93.8372381,29.9576667 C93.8530499,31.116444 93.735591,32.2469859 93.1166729,33.2702336 C92.9450022,33.5525867 92.9698493,34.0325871 92.4616137,33.9546576 C91.9962957,33.8823752 91.6394014,33.6237397 91.4745071,33.1595512 C91.2904129,32.6422803 91.4123894,32.1024211 91.3841541,31.573856" id="Fill-201"></path>
                    <path d="M79.2689462,41.0326858 C79.3276756,40.1189911 79.5388758,39.2640258 80.3848057,38.7648255 C80.7213707,38.5660489 81.3052769,38.4689194 81.4837241,38.8303314 C81.9004773,39.6717437 82.4166188,40.5346149 82.0427833,41.5736744 C81.885795,42.0084982 81.6621713,42.3620043 81.3007593,42.6341927 C80.3599587,43.3445932 79.4948287,42.9910871 79.3276756,41.8244039 C79.290405,41.5635097 79.2881462,41.2969683 79.2689462,41.0326858" id="Fill-202"></path>
                    <path d="M125.646012,60.8979223 C126.296554,60.7138281 126.951613,60.4902044 127.433872,61.2198049 C127.864178,61.8692171 127.851755,62.496041 127.53439,63.2177356 C127.133448,64.1291715 126.122624,64.4759012 125.379471,63.8140654 C124.610341,63.128512 124.38107,62.1696408 124.209399,61.2051226 C124.138246,60.8053105 124.374293,60.6144398 124.751517,60.6630045 C125.0542,60.702534 125.347847,60.8166046 125.646012,60.8979223" id="Fill-204"></path>
                    <path d="M98.5706059,36.5161652 C98.2487234,37.4016246 98.3853823,38.5558841 97.2299933,39.2278846 C96.6539929,39.5633201 96.2496632,39.3080729 95.8916394,39.1307551 C95.2885332,38.8337196 95.2264155,38.1142839 95.1722037,37.5145658 C95.1270272,37.0210125 95.4748862,36.6460476 95.9921572,36.6652476 C96.5421811,36.6867064 96.6506047,36.3670827 96.7714518,35.9604942 C96.9487696,35.3675526 97.3643934,35.0659995 97.9810526,35.2195996 C98.6056177,35.3731997 98.557053,35.9187059 98.5706059,36.5161652" id="Fill-205"></path>
                    <path d="M98.1165821,33.0025629 C98.2893822,32.6603509 98.1018997,32.0120681 98.6101354,31.8132915 C99.0009121,31.6608208 99.4515477,31.8821856 99.7790773,32.2402094 C100.078372,32.5666096 100.475925,32.7699039 100.84976,33.0082099 C101.583878,33.4769161 101.701337,34.6707051 101.128725,35.3347997 C100.669054,35.866753 99.8140891,35.7944706 99.1398298,35.1676466 C98.5333353,34.6051992 98.1685351,33.923034 98.1165821,33.0025629" id="Fill-206"></path>
                    <path d="M219.191862,38.9466609 C219.196379,38.4564958 219.230262,37.964072 219.531815,37.5552247 C220.081839,36.8075536 221.274498,36.9193654 221.562498,37.7788483 C221.843722,38.6168724 221.965699,39.4910377 221.625746,40.37085 C221.459722,40.8045444 221.25191,41.2020976 220.775298,41.2935801 C220.208333,41.4020037 219.895486,40.984121 219.612003,40.5809208 C219.268662,40.0918852 219.160238,39.5362142 219.191862,38.9466609" id="Fill-207"></path>
                    <path d="M194.679093,15.031351 C194.633916,15.1228335 194.58874,15.3069277 194.475798,15.4300337 C193.771045,16.1991636 193.501115,17.0010465 193.865916,18.0706001 C194.08841,18.7234005 193.403986,18.5912593 193.097915,18.4749298 C192.284738,18.1620825 191.979797,17.1794936 191.066102,16.8982699 C190.793914,16.813564 190.845867,16.1912577 191.230996,15.8840575 C191.914291,15.3396807 192.715044,14.9771392 193.397209,14.412433 C193.912221,13.9866445 194.705069,14.3943624 194.679093,15.031351" id="Fill-208"></path>
                    <path d="M78.7787812,25.3711225 C78.7302164,26.6078292 78.0751572,27.6401123 77.3489449,27.8806771 C76.4454149,28.1799714 75.805038,27.6977123 75.26292,27.0923472 C74.7682373,26.5378057 74.9286139,26.0781348 75.6536967,25.9380876 C76.1811324,25.8353111 76.5436738,25.6647698 76.6633915,25.0831224 C76.8248975,24.3049571 77.450592,24.3433572 78.0265924,24.4461337 C78.6884282,24.5658514 78.786687,25.0932871 78.7787812,25.3711225" id="Fill-209"></path>
                    <path d="M177.980729,54.0898238 C177.915223,53.5352822 178.164823,52.8485994 178.72727,53.0304348 C179.404918,53.2495409 180.15033,53.3692586 180.773766,53.7430941 C181.086613,53.9305766 181.138566,54.3292592 181.129531,54.6963183 C181.106942,55.5264365 180.146942,56.7382961 179.525765,56.7258725 C178.674188,56.7089314 177.937811,55.4744835 177.980729,54.0898238" id="Fill-210"></path>
                    <path d="M94.9451918,12.7510672 C94.9937565,11.1800544 96.1909338,10.1432537 97.4129581,10.5543599 C98.0522056,10.7700777 98.3153587,11.2489486 98.1256174,11.7560548 C97.8138995,12.5940789 97.4039228,13.4524324 96.5150752,13.8657973 C95.600251,14.2904564 94.9124388,13.7833502 94.9451918,12.7510672" id="Fill-212"></path>
                    <path d="M72.7036713,21.5909789 C73.075248,21.5808142 73.3677658,21.692626 73.6072013,22.0145086 C74.1007545,22.6752149 73.8635779,24.8244869 73.1972245,25.2660872 C73.0289421,25.3767696 72.7861184,25.397099 72.5749183,25.4129108 C72.1976945,25.4422755 71.7628707,25.2265577 71.6555765,25.0006752 C71.377741,24.4178984 71.1654114,23.7922039 70.9304936,23.190227 C70.7023523,22.6063207 71.9706826,21.5796848 72.7036713,21.5909789" id="Fill-213"></path>
                    <path d="M96.7398282,84.1423611 C96.7082047,83.5008548 97.0052402,83.046831 97.8387466,83.3743606 C98.2905116,83.5516784 98.6812883,83.4545489 99.1127239,83.3980783 C99.4967242,83.3483842 99.9552656,83.3190194 100.164207,83.7538432 C100.361854,84.1672082 100.330231,84.6234909 100.073854,85.015397 C99.9338068,85.2333736 99.7293831,85.415209 99.531736,85.5891386 C99.0822298,85.9855624 98.6507942,86.5660804 97.9641114,86.2984096 C97.2254756,86.0104094 96.7274047,85.0752559 96.7398282,84.1423611" id="Fill-214"></path>
                    <path d="M120.570432,15.1149276 C120.511703,16.1257518 119.640926,17.3285761 118.922619,17.3116349 C118.116219,17.2924349 117.59443,16.5244344 117.661066,15.4560102 C117.726571,14.4305036 118.47989,13.9166209 119.72789,13.9855151 C120.436032,14.0250445 120.634809,14.4033977 120.570432,15.1149276" id="Fill-216"></path>
                    <path d="M178.799553,22.3680147 C178.835694,21.6948848 180.389766,20.2153545 181.052731,20.2334251 C181.672778,20.2492368 181.868167,20.7518254 181.982237,21.2035904 C182.20812,22.0913086 181.032401,23.5787449 180.113059,23.6510273 C179.337153,23.713145 178.756635,23.1461799 178.799553,22.3680147" id="Fill-217"></path>
                    <path d="M119.168831,40.5165443 C119.221914,40.3211559 119.280643,39.9224733 119.435373,39.5644495 C119.799043,38.719649 120.90135,38.3130605 121.623045,38.7219078 C122.261163,39.0821904 122.321022,39.7722614 121.772127,40.6780502 C121.47735,41.164827 121.198385,41.6504744 120.547844,41.7848745 C119.704173,41.958804 119.174478,41.578192 119.168831,40.5165443" id="Fill-218"></path>
                    <path d="M104.754139,52.6023875 C104.225574,52.5413992 103.664256,52.5075168 103.259927,52.1381989 C102.944821,51.8513282 102.558561,51.4142455 103.306233,51.1589983 C103.67668,51.0325041 103.693621,50.7591863 103.815598,50.4757037 C104.162327,49.665915 105.001481,49.3474206 105.769481,49.6794679 C106.395176,49.9493975 106.512635,50.6304333 106.089105,51.5158927 C105.705105,52.3166461 105.353857,52.6023875 104.754139,52.6023875" id="Fill-219"></path>
                    <path d="M74.6711079,179.407177 C74.1425428,179.345059 73.5812248,179.312306 73.1768951,178.941859 C72.8629184,178.654988 72.47553,178.219035 73.223201,177.963787 C73.5936483,177.836164 73.6105895,177.563975 73.7325661,177.280493 C74.0792957,176.469575 74.9184492,176.15221 75.6864497,176.484257 C76.3110148,176.754187 76.4296031,177.435222 76.0060734,178.320682 C75.6220732,179.121435 75.2719553,179.407177 74.6711079,179.407177" id="Fill-220"></path>
                    <path d="M66.6116202,74.6270608 C65.3557135,74.630449 64.4555717,73.3609894 64.806819,72.1423533 C64.9333132,71.7030118 65.272137,71.5143999 65.5793372,71.6002353 C66.2389141,71.7832001 66.9075263,72.0339297 67.4823973,72.3976005 C67.9556211,72.6980242 68.0504918,73.2728952 67.8370328,73.8195308 C67.6247032,74.3650371 67.20795,74.644002 66.6116202,74.6270608" id="Fill-221"></path>
                    <path d="M115.143605,48.3219141 C114.181346,48.2857729 113.757816,47.8814432 113.706992,46.9621014 C113.674239,46.3691599 113.763463,45.9015831 114.529205,45.9219125 C114.786711,45.928689 115.047605,45.8180066 115.30624,45.7615359 C115.956782,45.6181005 116.666053,45.3572063 116.897583,46.3318893 C117.070383,47.0592309 116.371276,48.1378199 115.671041,48.2744788 C115.498241,48.3072317 115.319793,48.3072317 115.143605,48.3219141" id="Fill-222"></path>
                    <path d="M173.34562,40.3697206 C173.332067,40.9547563 173.32529,41.3060036 173.316255,41.6572509 C173.302702,42.1112747 173.112961,42.4060514 172.623925,42.4500985 C172.183454,42.4907573 171.868348,42.3563572 171.689901,41.9158864 C171.255077,40.8429445 171.448207,39.7462849 171.583736,38.6631783 C171.635689,38.2520722 172.054701,38.1752721 172.426278,38.2373898 C172.804631,38.3028957 173.23042,38.3187075 173.240584,38.8924491 C173.251878,39.4628024 173.319643,40.0320263 173.34562,40.3697206" id="Fill-223"></path>
                    <path d="M212.374728,106.037152 C211.662068,106.142187 211.467809,105.743505 211.599951,105.17654 C211.820186,104.223316 212.264045,103.363833 212.936046,102.643267 C213.141599,102.424161 213.395717,102.216349 213.742446,102.33155 C214.133223,102.463691 214.219058,102.776538 214.263105,103.156021 C214.440423,104.65588 213.532376,106.048446 212.374728,106.037152" id="Fill-226"></path>
                    <path d="M75.6401438,72.8843773 C75.5757673,73.1407539 75.4752496,73.3937423 75.4526613,73.6546366 C75.405226,74.2227311 75.3035789,74.7659785 74.6033431,74.7863079 C73.9166603,74.8043785 73.4276247,74.4158606 73.1712481,73.7901661 C72.8911538,73.1068715 73.4434365,71.8024001 74.107531,71.4951999 C74.9003786,71.1281408 75.6898379,71.8441884 75.6401438,72.8843773" id="Fill-227"></path>
                    <path d="M141.411481,13.9505033 C141.440846,13.4874442 141.534587,13.1124792 141.799999,12.7883378 C142.214493,12.2812316 142.630117,11.5154899 143.349553,11.8577019 C144.040753,12.1863609 144.00913,13.0356791 143.884894,13.7517267 C143.795671,14.2610917 143.391341,14.6394449 143.227576,15.1409041 C143.181271,15.2820806 142.544282,15.5791161 142.050729,15.3600101 C141.348234,15.0471628 141.552658,14.4101742 141.411481,13.9505033" id="Fill-228"></path>
                    <path d="M126.682813,47.1507133 C126.80366,47.9977727 126.478389,48.6663849 125.998389,49.2638441 C125.709259,49.6229973 125.332035,49.8093504 124.836223,49.6602679 C124.297493,49.4998913 124.01627,49.1396087 123.991423,48.606526 C123.969964,48.1457257 123.822011,47.5697254 124.567423,47.5008312 C124.894953,47.4692076 125.011282,47.2659134 125.082435,46.9903367 C125.115188,46.8627131 125.141165,46.7147601 125.222482,46.6221483 C125.559047,46.2415363 125.97693,45.9659596 126.500977,46.1003597 C127.274625,46.3002657 126.28413,46.8977249 126.682813,47.1507133" id="Fill-229"></path>
                    <path d="M168.202275,54.2197062 C169.066276,54.0423884 169.719076,54.1779179 169.6931,55.2666716 C169.676158,55.9996603 168.804252,57.1313316 168.261005,57.1290728 C167.579969,57.1279434 166.785992,55.9827191 166.822133,55.0520832 C166.859404,54.0841767 167.453475,54.0186708 168.202275,54.2197062" id="Fill-230"></path>
                    <path d="M279.450536,155.704196 C278.854207,155.703067 278.403571,155.472667 278.279336,154.852619 C278.1551,154.229184 278.532324,153.982972 279.084607,153.875678 C279.46296,153.801136 279.782584,153.702877 279.422301,153.183348 C279.188513,152.845653 279.19416,152.401794 279.647054,152.161229 C280.130443,151.903723 280.546067,152.122829 280.801314,152.510218 C281.364891,153.37196 280.860043,154.226925 280.643196,155.053655 C280.503149,155.590126 279.967807,155.700808 279.450536,155.704196" id="Fill-231"></path>
                    <path d="M205.346394,116.899841 C205.615194,116.773347 205.5079,116.524877 205.531617,116.324971 C205.582441,115.895794 205.893029,115.870947 206.216041,115.877723 C206.480324,115.88337 206.744606,115.889017 206.890301,116.188312 C207.08456,116.590382 206.612465,118.135419 206.132465,118.493443 C205.458206,118.99829 204.867523,118.645913 204.320887,118.232548 C203.635334,117.715277 203.69971,117.006006 203.923334,116.296735 C204.06451,115.84497 204.397687,116.014382 204.684558,116.136359 C205.025641,116.280923 204.920605,116.820783 205.346394,116.899841" id="Fill-232"></path>
                    <path d="M120.734197,77.9430159 C120.757915,77.0665918 121.434433,76.4792973 122.41928,76.4804267 C123.077728,76.4804267 123.492222,77.0372271 123.448175,77.8616982 C123.39961,78.7505458 122.735516,79.5241934 122.045445,79.4970875 C121.349727,79.4699816 120.713868,78.7155341 120.734197,77.9430159" id="Fill-233"></path>
                    <path d="M150.652334,31.4733383 C150.60377,31.9793151 150.705417,32.4875507 150.374499,32.8015274 C149.98711,33.1708453 149.443863,33.3300925 148.913039,33.1380924 C148.413839,32.9585158 148.152944,32.5440214 148.216191,31.9962563 C148.251203,31.6958326 148.300897,31.3784677 148.433039,31.1130557 C148.786545,30.4071729 149.362545,29.7882549 150.165557,29.9633138 C150.984382,30.1406316 150.505511,30.9989851 150.652334,31.4733383" id="Fill-234"></path>
                    <path d="M165.933285,52.9931642 C165.903921,52.1878931 166.395215,52.0331636 167.052533,52.111093 C167.690651,52.1856343 168.454134,52.1133519 168.428158,53.1038466 C168.393146,54.4760828 168.03964,55.1469539 167.357475,55.1684127 C166.543168,55.1932598 165.923121,54.2456827 165.933285,52.9931642" id="Fill-235"></path>
                    <path d="M106.959882,26.2068878 C106.9644,25.1113577 107.506518,24.3309336 108.265483,24.4111219 C108.918283,24.4788867 109.458142,24.7544633 109.476213,25.5416638 C109.497672,26.5118292 108.710471,27.5971946 107.98313,27.6028417 C107.312259,27.6062299 106.955364,27.1205825 106.959882,26.2068878" id="Fill-236"></path>
                    <path d="M131.183521,41.6357921 C131.179004,42.624028 130.726109,43.1062871 129.82145,43.0836989 C128.971002,43.0633695 128.557637,42.5427103 128.562155,41.4968743 C128.566673,40.7085444 129.061355,40.2827559 129.940038,40.3121206 C130.862768,40.3448736 131.188039,40.6904738 131.183521,41.6357921" id="Fill-238"></path>
                    <path d="M230.618128,88.6656582 C230.867728,88.5188346 230.86434,88.2839168 230.937752,88.0828814 C231.150081,87.5001045 231.660576,87.4323398 232.120247,87.5881987 C232.619447,87.7576106 232.490694,88.2014697 232.321282,88.5922464 C232.199305,88.8745995 232.09427,89.1637291 231.996011,89.4551176 C231.783682,90.0808121 231.308199,90.3428358 230.69154,90.3959182 C230.013892,90.4546476 229.638927,90.0028826 229.341892,89.5059411 C229.109233,89.1174232 228.989515,88.6216111 229.358833,88.2793992 C229.703304,87.9609048 229.965328,88.4713993 230.284951,88.5481993 C230.405798,88.5775641 230.522128,88.6317759 230.618128,88.6656582" id="Fill-239"></path>
                    <path d="M125.132129,35.7267058 C125.114059,36.8064242 124.385588,37.9392249 123.756505,37.8759778 C123.038198,37.8036954 122.667751,37.4468011 122.724222,36.6550829 C122.802151,35.5527763 123.377022,34.7655758 124.182293,34.7994581 C124.797823,34.8254346 125.196506,35.0750348 125.132129,35.7267058" id="Fill-242"></path>
                    <path d="M189.884736,46.7249248 C189.884736,46.1376303 190.565772,45.4848299 191.157584,45.5051593 C191.770855,45.5266181 192.347985,46.3341481 192.35702,47.1823369 C192.364926,47.8938667 191.814902,48.5545731 191.218573,48.5523142 C190.462996,48.5477966 189.883607,47.754949 189.884736,46.7249248" id="Fill-244"></path>
                    <path d="M131.983146,29.3297134 C131.989922,29.0484897 131.970722,28.8677837 132.001216,28.696113 C132.143522,27.8919713 132.815523,27.6355946 133.451382,27.5904181 C134.213735,27.5350769 133.872653,28.2985598 134.029641,28.6938541 C134.075947,28.811313 134.071429,28.9547484 134.072559,29.0857603 C134.081594,30.0977139 133.379099,31.122091 132.640464,30.9730086 C131.657875,30.774232 132.197734,29.8164902 131.983146,29.3297134" id="Fill-247"></path>
                    <path d="M125.098247,25.4501814 C125.195376,24.9893811 124.950294,24.3885337 125.617777,24.2191218 C126.208459,24.0677805 126.569871,24.5624632 126.753966,24.9340399 C126.999048,25.4309814 127.961308,25.7810993 127.161684,26.6394528 C126.825119,27.0008648 126.651189,27.4808651 126.074059,27.360018 C125.559047,27.250465 125.271047,26.8371 125.147941,26.3503232 C125.074529,26.0578053 125.11067,25.739311 125.098247,25.4501814" id="Fill-249"></path>
                    <path d="M98.4316882,97.0379931 C98.5073588,96.1988397 99.3081123,95.4353568 100.056913,95.471498 C100.674701,95.5019921 100.911878,95.8317806 100.856537,96.4213339 C100.756019,97.4999229 100.087407,98.3978058 99.4255712,98.3368175 C98.7524413,98.2746998 98.3661823,97.7698524 98.4316882,97.0379931" id="Fill-251"></path>
                    <path d="M123.582575,50.988457 C124.233117,51.0223394 124.788788,51.6604575 124.754905,52.3313285 C124.721023,52.9750936 124.060317,53.5691646 123.390575,53.4494469 C122.717445,53.3297291 122.091751,53.0710937 122.148221,52.182246 C122.200174,51.3837514 122.724222,50.9410217 123.582575,50.988457" id="Fill-252"></path>
                    <path d="M94.1771913,5.92828625 C94.1997795,5.08009745 94.3048149,4.36856758 95.2456155,4.29967341 C95.8746983,4.2533675 96.5026516,5.14447397 96.4540869,5.93167448 C96.4258516,6.40602774 95.5065098,7.56028732 95.2026978,7.44056959 C94.496815,7.16273412 94.0394029,6.66579261 94.1771913,5.92828625" id="Fill-253"></path>
                    <path d="M81.8428773,98.9613826 C81.3075358,98.7422766 80.6863589,98.5299471 80.1047114,98.2396881 C79.6879582,98.0318761 79.5874405,97.6320641 79.8697936,97.2424168 C80.2176527,96.7612871 80.4966176,96.0610513 81.1945945,96.1570514 C81.4362888,96.1898044 82.2381717,96.355828 81.9637244,97.0741343 C81.7717243,97.5767229 82.2133246,97.7506524 82.39516,98.072535 C82.6639602,98.5480177 82.5815131,98.9229826 81.8428773,98.9613826" id="Fill-254"></path>
                    <path d="M184.265909,36.499224 C184.333674,37.1667068 183.971133,37.7686836 183.24492,38.1538133 C182.906097,38.3345193 182.558238,38.3266134 182.277014,38.0453897 C182.021767,37.7901425 181.826378,37.4750364 182.012731,37.1034597 C182.247649,36.6347535 182.526614,36.1897649 182.781861,35.7323529 C183.043885,35.2579996 183.424497,35.220729 183.89998,35.3765879 C184.430803,35.5505175 184.354003,35.9356471 184.265909,36.499224" id="Fill-255"></path>
                    <path d="M65.1027251,21.2487669 C65.1320898,20.5101311 65.8368432,19.8618483 66.6172673,19.9205778 C67.4101149,19.9793072 67.4462561,20.6117782 67.4439972,21.1968139 C67.4394796,21.982885 66.7640909,22.6322972 66.0085139,22.6334266 C65.4426783,22.6356855 65.0699721,22.0664616 65.1027251,21.2487669" id="Fill-256"></path>
                    <path d="M70.112799,60.5150515 C70.1624931,59.7380157 70.3443286,59.1021565 71.2071997,59.0919918 C71.8272472,59.0852153 72.5399065,59.9074276 72.5026359,60.4868162 C72.4585888,61.1599461 71.7402824,61.8082288 71.0716702,61.7370758 C70.3059285,61.6546287 70.0292225,61.1757578 70.112799,60.5150515" id="Fill-257"></path>
                    <path d="M77.3342626,53.0134936 C77.825557,53.4629998 79.0803343,52.7616347 78.8183106,54.1338708 C78.6884282,54.8149066 77.9949689,55.3728364 77.2936037,55.2790951 C76.612568,55.1887421 76.024144,54.5099652 76.1246618,53.9068589 C76.2443795,53.1885526 76.7582622,53.0326937 77.3342626,53.0134936" id="Fill-259"></path>
                    <path d="M73.8760015,86.6925746 C74.649649,86.7501746 75.3363318,86.6304569 75.2990612,87.5159163 C75.2685671,88.2398697 74.4531313,89.133235 73.8872956,89.0507879 C73.184801,88.9491408 72.823389,88.5086699 72.8392008,87.7576106 C72.8584008,86.9015159 73.2085187,86.5062215 73.8760015,86.6925746" id="Fill-260"></path>
                    <path d="M119.274996,64.193548 C118.701254,63.7813125 118.906808,63.5351006 119.446667,63.3193828 C119.871326,63.1511003 120.282432,62.9760414 120.674338,63.3577828 C121.103515,63.7734066 121.023327,64.2737363 120.750009,64.6927484 C120.473303,65.1174075 120.13222,65.5477136 119.717726,65.8210315 C119.255796,66.1248434 118.763372,65.9102551 118.458431,65.4562312 C118.107183,64.9333132 118.485537,64.7593837 118.914713,64.6419248 C119.141725,64.5798071 119.32582,64.4849365 119.274996,64.193548" id="Fill-261"></path>
                    <path d="M205.309123,35.5324469 C206.235241,35.6115057 207.013407,36.2067061 206.81463,36.8120712 C206.657642,37.2898127 206.729924,38.1346133 205.812841,38.0905662 C205.167947,38.0578132 204.291522,36.8708007 204.399946,36.1536237 C204.482393,35.6092469 204.808793,35.4127291 205.309123,35.5324469" id="Fill-262"></path>
                    <path d="M120.178526,52.7356582 C121.034621,53.3387644 121.484127,53.9249295 121.519139,54.8002242 C121.541727,55.3423422 121.431044,55.7590954 120.876503,55.9691662 C120.406667,56.1476133 119.970714,56.0414486 119.654479,55.7071425 C119.280643,55.3129775 119.319043,54.7900595 119.538149,54.3326474 C119.773067,53.8436118 120.310667,53.518341 120.178526,52.7356582" id="Fill-265"></path>
                    <path d="M164.888579,113.901251 C164.681896,114.504358 164.527167,115.160546 163.726413,115.151511 C163.201237,115.145864 162.486318,114.259275 162.52133,113.743134 C162.546177,113.378333 163.608955,112.470286 163.983919,112.521109 C164.816296,112.63405 164.858085,113.26878 164.888579,113.901251" id="Fill-266"></path>
                    <path d="M103.250891,12.2225021 C103.270091,12.6482907 103.183127,13.0300321 102.54275,13.0085732 C101.813149,12.9848556 100.896066,12.3275375 101.067737,11.8102666 C101.261996,11.230878 101.559031,10.5554893 102.238938,10.4030186 C102.81042,10.2742656 103.277997,11.1450426 103.250891,12.2225021" id="Fill-267"></path>
                    <path d="M139.386444,89.1693762 C139.309644,89.5556353 139.246397,89.9452826 139.153786,90.3281534 C139.034068,90.8262244 138.671526,91.0871186 138.190397,91.0204833 C137.70249,90.9515891 137.278961,90.6963419 137.120843,90.1643886 C137.053078,89.9373767 137.070019,89.6245295 137.291384,89.6109765 C138.045832,89.5624118 138.182491,89.1072585 138.211855,88.4838228 C138.225408,88.1833991 138.462585,87.9959166 138.767526,88.120152 C139.217033,88.3042462 139.446303,88.6588818 139.386444,89.1693762" id="Fill-268"></path>
                    <path d="M99.9349362,71.1676703 C99.3261829,71.1699291 98.9229826,70.5803758 99.2335711,70.0540695 C99.5272183,69.5548692 99.6424184,69.138116 99.4368653,68.5756686 C99.214371,67.9669152 99.827642,67.8223504 100.175501,67.692468 C100.723266,67.4880443 100.617101,68.0459741 100.740207,68.3362331 C101.057572,69.0872924 100.810231,69.8067282 100.646466,70.5340699 C100.553854,70.9406584 100.228583,71.0592467 99.9349362,71.1676703" id="Fill-269"></path>
                    <path d="M104.243645,26.1425113 C104.184915,25.7246287 104.257198,25.4050049 104.745104,25.4061343 C105.324493,25.4083932 106.407599,26.5818528 106.404211,27.204159 C106.401952,27.7191711 106.312729,28.1811009 105.620399,28.1427008 C104.781245,28.0975243 104.247033,27.3227474 104.243645,26.1425113" id="Fill-270"></path>
                    <path d="M166.703545,13.4806677 C166.781474,12.9588791 166.754368,12.2225021 167.511075,12.4065964 C168.087075,12.5455141 168.852817,12.8289967 168.800864,13.6850913 C168.759076,14.3683859 168.333287,14.9376098 167.656769,14.9398686 C166.755498,14.9443863 166.747592,14.1515387 166.703545,13.4806677" id="Fill-272"></path>
                    <path d="M141.610258,29.5047723 C141.299669,29.4336193 140.832092,29.2777604 140.710116,28.8519719 C140.582492,28.4092422 140.964234,28.0941361 141.377599,28.0534772 C141.938917,27.998136 142.177223,27.5734769 142.529599,27.2640179 C142.689976,27.1228413 142.782588,26.6823705 143.106729,27.0087707 C143.305506,27.2086767 143.686118,27.2482061 143.675953,27.6615711 C143.656753,28.4273128 142.534117,29.5138076 141.610258,29.5047723" id="Fill-273"></path>
                    <path d="M157.85121,44.2684526 C157.128386,44.2052055 156.704856,43.9578642 156.730832,43.204546 C156.759068,42.3484513 157.320386,42.0762629 158.02288,42.0017217 C158.618081,41.9384746 158.919634,42.2479336 158.863163,42.8736282 C158.798787,43.5738639 158.604528,44.1577702 157.85121,44.2684526" id="Fill-275"></path>
                    <path d="M126.094389,171.520489 C126.09213,172.055831 125.941918,172.472584 125.690059,172.832866 C125.415612,173.224773 124.983047,173.416773 124.544835,173.201055 C124.139376,173.002278 124.335893,172.587784 124.421729,172.259125 C124.508694,171.923689 124.619376,171.591642 124.737964,171.265242 C124.897211,170.823642 124.986435,170.226182 125.648271,170.38543 C126.308977,170.543547 126.045824,171.155689 126.094389,171.520489" id="Fill-276"></path>
                    <path d="M67.3863972,114.793487 C66.7426321,114.755087 66.0288434,113.644875 66.2389141,113.07791 C66.3303965,112.830568 66.5269143,112.761674 66.7607027,112.768451 C67.2542559,112.782003 67.2915265,113.263133 67.530962,113.536451 C67.7410327,113.15358 68.0267741,112.909627 68.4830567,113.108404 C69.1290807,113.389627 69.0353395,113.848169 68.672798,114.272828 C68.3384919,114.665864 67.8110563,114.680546 67.3863972,114.793487" id="Fill-277"></path>
                    <path d="M96.6257576,34.6673169 C96.9871696,34.0969636 97.2762992,33.3481631 97.9528173,32.8794569 C98.0883468,32.7857157 98.2679234,32.7721627 98.4475,32.8873628 C98.8823238,33.1674571 98.7840649,34.1997401 98.2938999,35.0942348 C97.9178055,35.7809176 97.4378052,35.5527763 96.949899,35.3268938 C96.7477341,35.2331526 96.6223693,35.034376 96.6257576,34.6673169" id="Fill-278"></path>
                    <path d="M87.3566691,77.0101212 C87.397328,76.2240501 88.9050937,75.3024495 89.5974236,75.6469203 C89.7058472,75.7011321 89.8628355,75.8106851 89.8673531,75.9021675 C89.9012355,76.6328974 89.3839646,77.0801447 88.9231643,77.5194862 C88.5402934,77.8865453 88.0670696,77.9396277 87.6062693,77.5827333 C87.4142692,77.4325214 87.3419868,77.2439096 87.3566691,77.0101212" id="Fill-279"></path>
                    <path d="M127.483566,36.8199771 C128.567802,36.4743769 129.614767,36.3908004 130.657215,36.899036 C130.973451,37.0537655 131.175616,37.2344715 131.068321,37.6094365 C130.965545,37.9764955 130.663992,38.1210603 130.348886,38.0431309 C129.348226,37.7935307 128.258343,37.7585189 127.483566,36.8199771" id="Fill-280"></path>
                    <path d="M121.36328,122.543516 C121.319233,123.22681 121.224362,123.905587 120.417961,123.927046 C119.888267,123.940599 119.557349,123.513681 119.561867,122.945587 C119.566384,122.220504 120.21015,121.476221 120.830197,121.495421 C121.661445,121.522527 121.257115,122.182104 121.36328,122.543516" id="Fill-282"></path>
                    <path d="M128.619755,16.619305 C127.645072,16.5628344 127.335613,16.0444341 127.451943,15.439069 C127.546813,14.9455157 127.665401,14.2193035 128.486484,14.3141741 C128.967614,14.3706447 129.57072,14.4350212 129.332414,15.1567158 C129.152838,15.7022221 129.383238,16.5741285 128.619755,16.619305" id="Fill-283"></path>
                    <path d="M144.456377,149.766875 C144.50833,149.203298 144.504942,148.623909 145.18146,148.631815 C145.756331,148.638592 146.009319,149.089227 146.039814,149.629087 C146.056755,149.936287 146.033037,150.251393 145.984472,150.555205 C145.914449,151.001323 145.637743,151.257699 145.179201,151.299488 C144.544471,151.358217 144.650636,150.827393 144.551248,150.484052 C144.478965,150.233322 144.480095,149.960004 144.456377,149.766875" id="Fill-284"></path>
                    <path d="M115.690241,41.411039 C115.586335,42.1225688 115.221534,42.7572987 114.503228,42.7426163 C113.919322,42.7290634 113.746522,42.1033688 113.859463,41.5172037 C113.983698,40.8711798 114.222004,40.3109912 115.020499,40.3663324 C115.675558,40.4126383 115.74897,40.8813445 115.690241,41.411039" id="Fill-285"></path>
                    <path d="M244.435361,46.6232777 C244.439878,47.0027603 244.541525,47.4567841 243.959878,47.6420078 C243.377101,47.8283608 242.832724,47.7956079 242.331265,47.4601723 C242.108771,47.3122193 241.978888,47.0547133 242.009382,46.7723601 C242.045524,46.4482187 242.313194,46.3815834 242.577477,46.3194657 C242.905007,46.2415363 243.337572,46.4086893 243.530701,46.0167832 C243.719313,45.6327829 243.970043,45.6418182 244.28176,45.7875124 C244.677055,45.9738655 244.543784,46.2821951 244.435361,46.6232777" id="Fill-286"></path>
                    <path d="M83.5110196,54.0774002 C84.0937964,53.9972119 84.3513025,54.2061532 84.2835377,54.7279418 C84.2078671,55.3016834 84.1423611,55.9104367 83.3754901,55.9702956 C82.808525,56.0132133 81.9897009,55.248601 82.0755363,54.7132595 C82.2313952,53.7521294 83.1112075,54.3620122 83.5110196,54.0774002" id="Fill-287"></path>
                    <path d="M72.7443301,39.1657669 C72.1818827,38.9432726 71.6984941,38.6631783 71.6883294,37.9685896 C71.6838118,37.6884953 72.932942,37.0616714 73.3869658,37.1294362 C73.9731309,37.2175303 73.8579309,37.7088248 73.8353426,38.0634603 C73.7924249,38.7083548 73.4197188,39.1013904 72.7443301,39.1657669" id="Fill-289"></path>
                    <path d="M94.4550267,43.4191344 C94.2562501,43.9522171 94.2709325,44.7360294 93.3730496,44.6219587 C92.8309316,44.5530646 92.3622254,44.2515114 92.2221782,43.6709934 C92.1657076,43.4383344 93.4272614,42.4546161 93.6904145,42.4986632 C94.1884854,42.5811103 94.4922974,42.8510399 94.4550267,43.4191344" id="Fill-290"></path>
                    <path d="M237.826039,147.787015 C237.828297,148.459015 237.108862,149.335439 236.566744,149.285745 C236.171449,149.249604 235.925237,149.037274 235.916202,148.592286 C235.903778,147.94965 236.588202,147.014497 237.095309,147.032567 C237.569662,147.050638 237.835074,147.291203 237.826039,147.787015" id="Fill-291"></path>
                    <path d="M177.868917,29.7679254 C177.912964,29.0868897 178.317294,28.6362541 178.937341,28.6520659 C179.530283,28.6656188 179.674847,29.1704662 179.512212,29.728396 C179.355224,30.2693846 179.550612,31.1096675 178.568023,30.9707498 C177.897152,30.8758791 177.820352,30.328114 177.868917,29.7679254" id="Fill-293"></path>
                    <path d="M321.155223,99.8423244 C320.85254,100.33136 320.995976,101.233761 320.08341,101.10049 C319.647457,101.037243 319.239739,100.602419 319.463363,100.116772 C319.707316,99.5915948 319.567269,98.6507942 320.532916,98.7230766 C321.203787,98.7727708 321.10214,99.3792653 321.155223,99.8423244" id="Fill-294"></path>
                    <path d="M75.3894142,35.2704232 C75.5046143,34.7339522 75.5678614,33.9523988 76.4160502,33.9219046 C76.9208976,33.903834 77.0394859,34.4538579 77.0281918,34.9293406 C77.0089918,35.7470352 76.5120503,36.4676004 75.999297,36.3828945 C75.4334613,36.2891532 75.3464965,35.866753 75.3894142,35.2704232" id="Fill-295"></path>
                    <path d="M140.426633,86.1786919 C139.773833,86.1741742 139.292703,85.228856 139.631527,84.9306911 C140.128469,84.4936084 140.450351,83.9130904 140.964234,83.517796 C141.16301,83.3630665 141.469081,83.2862665 141.690446,83.5302196 C141.76047,83.6070196 141.786446,83.8566198 141.742399,83.8837257 C141.034257,84.3208083 141.135904,85.2107854 140.666069,85.770974 C140.533928,85.9290917 140.460516,86.1775625 140.426633,86.1786919" id="Fill-296"></path>
                    <path d="M156.553515,17.8300352 C156.631444,17.4991174 156.823444,17.2619407 157.170174,17.2382231 C157.661468,17.2065995 158.104198,17.2698466 158.435116,17.7464587 C158.837187,18.3258473 158.115492,18.8148829 158.380904,19.3570009 C158.267963,19.4112127 158.15728,19.504954 158.040951,19.5117305 C157.81168,19.5252834 156.54222,18.064953 156.553515,17.8300352" id="Fill-297"></path>
                    <path d="M109.915555,45.3289709 C109.855696,45.6813476 109.871507,46.3330187 109.236778,46.2991363 C108.687883,46.2686422 108.361483,45.7513712 108.349059,45.1618179 C108.336636,44.611794 108.535412,44.1803584 109.172401,44.1905231 C109.831978,44.2018173 109.944919,44.6660058 109.915555,45.3289709" id="Fill-298"></path>
                    <path d="M275.242345,106.284493 C275.13844,107.121388 274.323004,107.940212 273.749262,107.777577 C273.527897,107.715459 273.320085,107.593482 273.273779,107.361953 C273.236509,107.167694 273.402533,107.043459 273.584368,107.000541 C274.083568,106.883082 274.142298,106.496823 274.173921,106.082328 C274.203286,105.701716 274.147945,105.247693 274.781545,105.366281 C275.34964,105.472446 275.269451,105.88807 275.242345,106.284493" id="Fill-300"></path>
                    <path d="M201.98978,104.401763 C201.596744,104.324963 201.102061,104.247033 201.170956,103.744445 C201.25905,103.098421 201.744697,102.660209 202.377168,102.538232 C202.715992,102.472726 203.060463,102.69635 203.101122,103.127785 C203.150816,103.648445 202.485592,104.399504 201.98978,104.401763" id="Fill-301"></path>
                    <path d="M134.393312,64.026395 C134.395571,63.303571 134.640653,63.0528414 135.20423,63.0302532 C135.862677,63.0031473 135.766677,63.4775005 135.791524,63.8400419 C135.824277,64.3211717 135.640183,64.7740661 135.1071,64.7797131 C134.560465,64.7864896 134.401218,64.3324658 134.393312,64.026395" id="Fill-302"></path>
                    <path d="M91.9172368,163.613472 C91.9194957,162.890648 92.1657076,162.638789 92.7292844,162.616201 C93.3877319,162.590224 93.2917319,163.064578 93.3165789,163.427119 C93.3493319,163.907119 93.1652377,164.361143 92.6310255,164.36679 C92.0843899,164.373567 91.9262721,163.919543 91.9172368,163.613472" id="Fill-303"></path>
                    <path d="M221.414545,170.53903 C221.568146,170.020629 221.684475,169.399452 222.40617,169.339594 C222.874876,169.302323 222.939252,169.685194 222.967488,170.071453 C223.029605,170.917383 222.373417,170.952395 221.831299,171.078889 C221.44391,171.169242 221.414545,170.8643 221.414545,170.53903" id="Fill-304"></path>
                    <path d="M81.6169948,169.280864 C81.6350654,168.584017 81.7276772,168.222605 82.2822187,168.251969 C82.7136543,168.273428 82.9214662,168.507217 82.9158192,168.92397 C82.9079133,169.428817 82.562313,169.600488 82.1308775,169.621947 C81.7265478,169.642276 81.6181242,169.364441 81.6169948,169.280864" id="Fill-307"></path>
                    <path d="M350.097548,95.7177099 C350.140465,96.1706043 349.890865,96.3727692 349.482018,96.3467927 C349.040417,96.317428 348.742253,96.0486278 348.741123,95.5968628 C348.739994,95.1880155 349.039288,94.9756859 349.424418,94.96778 C349.907806,94.9587447 350.120136,95.2467449 350.097548,95.7177099" id="Fill-308"></path>
                    <path d="M192.372832,110.587555 C192.37735,110.823602 192.309585,111.095791 192.053208,111.05852 C191.525773,110.982849 191.024314,110.778426 190.889914,110.176449 C190.830055,109.909907 190.89669,109.593672 191.263749,109.645625 C191.808126,109.723554 192.273444,109.955084 192.372832,110.587555" id="Fill-309"></path>
                    <path d="M75.2617906,40.4239324 C75.2301671,40.8564974 75.0223552,41.055274 74.7320961,40.9524975 C74.2103076,40.7672738 73.5699307,40.6102855 73.5315306,39.9168262 C73.5123306,39.571226 73.9121427,39.6084966 74.1583546,39.6683555 C74.6451314,39.7858144 75.2843789,39.7417673 75.2617906,40.4239324" id="Fill-310"></path>
                    <path d="M172.482749,108.149153 C172.28736,107.704165 171.718136,107.4444 171.816395,106.820964 C171.861572,106.545388 172.03776,106.257387 172.355125,106.413246 C172.815925,106.639129 173.117478,107.032164 173.040678,107.593482 C173.004537,107.857765 172.911925,108.109624 172.482749,108.149153" id="Fill-312"></path>
                    <path d="M323.511177,148.239909 C323.651224,147.827674 323.977625,147.712473 324.349201,147.712473 C324.77499,147.711344 324.823555,148.070497 324.843884,148.364144 C324.872119,148.753792 324.606707,148.933368 324.246425,148.867862 C323.897436,148.804615 323.573295,148.655533 323.511177,148.239909" id="Fill-314"></path>
                </g>
            </g>
        </g>
    </g>
</svg>